<svg width="7" height="8" viewBox="0 0 7 8" fill="none" xmlns="http://www.w3.org/2000/svg">
<path id="Vector" fill-rule="evenodd" clip-rule="evenodd" d="M6.37022 7.39145C6.51411 7.53534 6.74793 7.53534 6.89182 7.39145C7.03606 7.24721 7.03606 7.01373 6.89182 6.86949L4.02161 3.99963L6.89111 1.13012C7.03535 0.98623 7.03535 0.752409 6.89111 0.608517C6.74688 0.46428 6.5134 0.46428 6.36951 0.608517L3.5 3.47767L0.630491 0.608163C0.486599 0.464271 0.252778 0.464271 0.108886 0.608163C-0.0353508 0.7524 -0.0353508 0.985876 0.108886 1.13011L2.97804 3.99962L0.108178 6.86984C-0.0360592 7.01373 -0.0360592 7.24721 0.108178 7.39145C0.252069 7.53568 0.485891 7.53568 0.629783 7.39145L3.5 4.52123L6.37022 7.39145Z" fill="black"/>
</svg>
