<svg width="15" height="16" viewBox="0 0 15 16" fill="none" xmlns="http://www.w3.org/2000/svg">
<g id="Group 14109">
<path id="Vector" d="M15 2.6767C15 1.47634 14.0227 0.499023 12.8223 0.499023H9.91876C9.51991 0.499023 9.19287 0.826061 9.19287 1.22491C9.19287 1.62377 9.51991 1.9508 9.91876 1.9508H12.5228L7.83376 6.63982C7.5502 6.92337 7.5502 7.38272 7.83376 7.66533C8.11732 7.94889 8.58612 7.93848 8.85928 7.66533L13.5483 2.97632V5.58033C13.5483 5.97918 13.8753 6.30622 14.2742 6.30622C14.673 6.30622 15.0001 5.97918 15.0001 5.58033L15 2.6767Z" fill="black"/>
<path id="Vector_2" d="M0.610622 13.8867C0.877169 14.2856 1.2127 14.6221 1.6125 14.8886C2.52741 15.501 3.86484 15.501 6.53113 15.501C9.19742 15.501 10.5359 15.501 11.4498 14.8886C11.8486 14.622 12.1851 14.2865 12.4516 13.8867C13.032 13.0181 13.0613 11.7667 13.0641 9.45201C13.0641 9.25825 12.9894 9.07677 12.8514 8.93878C12.7134 8.80078 12.532 8.72611 12.3382 8.72611C11.9365 8.72611 11.6123 9.05029 11.6123 9.452C11.6123 11.5503 11.5736 12.59 11.2465 13.0815C11.0868 13.3206 10.8836 13.5238 10.6463 13.6816C10.0972 14.0493 8.83162 14.0493 6.53297 14.0493C4.23431 14.0493 2.96884 14.0493 2.41959 13.6816C2.18046 13.5219 1.97914 13.3187 1.8194 13.0815C1.45173 12.5323 1.45173 11.2667 1.45173 8.96808C1.45173 6.66942 1.45173 5.40395 1.8194 4.85469C1.97913 4.61557 2.18234 4.41425 2.41959 4.2545C2.91106 3.92558 3.95359 3.88873 6.04904 3.88684C6.44789 3.88684 6.77493 3.5598 6.77493 3.16095C6.77493 2.7621 6.44789 2.43506 6.04904 2.43506C3.73149 2.43506 2.48298 2.46436 1.61433 3.04752C1.21737 3.31406 0.878981 3.6496 0.612458 4.04939C1.15377e-07 4.9643 0 6.30173 0 8.96803C0 11.6343 1.15377e-07 12.9728 0.612458 13.8867L0.610622 13.8867Z" fill="black"/>
</g>
</svg>
