<svg width="14" height="10" viewBox="0 0 14 10" fill="none" xmlns="http://www.w3.org/2000/svg">
<g id="Group">
<path id="Vector" d="M8.1665 8.33333C8.62674 8.33333 8.99984 8.70643 8.99984 9.16667C8.99984 9.6269 8.62674 10 8.1665 10H6.49984C6.0396 10 5.6665 9.6269 5.6665 9.16667C5.6665 8.70643 6.0396 8.33333 6.49984 8.33333H8.1665ZM10.6665 4.16667C11.1267 4.16667 11.4998 4.53976 11.4998 5C11.4998 5.46024 11.1267 5.83333 10.6665 5.83333H3.99984C3.5396 5.83333 3.1665 5.46024 3.1665 5C3.1665 4.53976 3.5396 4.16667 3.99984 4.16667H10.6665ZM13.1665 0C13.6267 0 13.9998 0.373096 13.9998 0.833333C13.9998 1.29357 13.6267 1.66667 13.1665 1.66667H1.49984C1.0396 1.66667 0.666504 1.29357 0.666504 0.833333C0.666504 0.373096 1.0396 0 1.49984 0H13.1665Z" fill="black"/>
</g>
</svg>
