<svg width="126" height="20" viewBox="0 0 126 20" fill="none" xmlns="http://www.w3.org/2000/svg">
<g id="massmarket-logo 1" clip-path="url(#clip0_864_387)">
<g id="Mask group">
<mask id="mask0_864_387" style="mask-type:luminance" maskUnits="userSpaceOnUse" x="0" y="0" width="126" height="20">
<g id="Group">
<path id="Vector" d="M125.679 0H0V20H125.679V0Z" fill="white"/>
</g>
</mask>
<g mask="url(#mask0_864_387)">
<g id="Group_2">
<path id="Vector_2" d="M16.0566 7.82764H8.15576V15.7285H16.0566V7.82764Z" fill="#111827"/>
<path id="Vector_3" d="M20.2592 0H0V19.765H3.95V3.95083H20.26V19.765H24.21V0H20.2592ZM123.954 15.9667C122.397 15.9667 121.134 15.1217 121.134 13.4583V9.01417H119.773V7.07917H121.175V5.27583C121.733 4.8825 122.454 4.36583 123.323 3.7175V7.07917H125.52V9.01417H123.323V12.9825C123.323 13.6875 123.708 13.925 124.315 13.925C124.759 13.9193 125.195 13.807 125.586 13.5975V15.6958C125.06 15.8713 124.509 15.9627 123.954 15.9667ZM114.904 15.9008C112.388 15.9008 110.715 14.1792 110.715 11.58C110.715 8.74333 112.404 6.91583 114.888 6.91583C117.577 6.91583 118.971 8.4975 118.971 11.5883C118.971 11.9575 118.905 12.2608 118.873 12.3508H113.142C113.347 13.2858 113.969 13.745 115.019 13.745C115.872 13.745 116.421 13.6383 117.036 13.0067L118.627 14.4092C117.577 15.565 116.429 15.9008 114.904 15.9008ZM113.142 10.7358H116.692C116.593 9.4075 115.995 8.82583 114.888 8.82583C113.969 8.82583 113.33 9.41583 113.142 10.7358ZM101.953 15.8025V3.93167H104.248V10.58L107.224 7.08H110.233L106.97 10.7117L110.52 15.8025H107.806L105.379 12.0883L104.248 13.3433V15.8025H101.953ZM95.0434 15.8025V7.07917H97.265V8.38333C97.6092 7.4075 98.3958 6.91583 99.1667 6.91583C99.8142 6.91583 100.544 7.07917 101.044 7.51417C100.888 7.7925 100.528 8.42417 99.9542 9.39167C99.7158 9.17833 99.47 9.12917 99.1508 9.12917C97.9375 9.12917 97.2483 10.3017 97.2483 11.4408V15.8025H95.0434ZM91.2008 14.7367C90.5117 15.6633 89.7333 15.9667 88.61 15.9667C87.0033 15.9667 85.4208 14.975 85.4208 13.2117C85.4208 11.2608 87.1592 10.7367 88.7742 10.7367H91.045C91.045 9.47333 90.4792 8.91583 89.52 8.91583C88.6675 8.91583 88.0442 9.35 87.6508 10.0475L85.88 8.77667C86.7492 7.57167 87.9133 6.91583 89.495 6.91583C91.8158 6.91583 93.25 8.2925 93.25 10.7358V15.8025H91.3725L91.2008 14.7367ZM89.0367 14.0317C89.9133 14.0317 91.045 13.3592 91.045 12.3758H89.1425C88.61 12.3758 87.7733 12.5475 87.7733 13.2283C87.7733 13.695 88.29 14.0317 89.0367 14.0317ZM83.9475 15.8025H81.6767V7.4975L78.9383 14.7692H76.6758L73.9375 7.4975V15.8025H71.6667V3.93167H74.7575L77.8242 12.04L80.8575 3.93167H83.9475V15.8025ZM60.7667 13.54L62.5783 12.7525C62.8892 13.5558 63.5042 14.0975 64.4308 14.0975C65.1608 14.0975 65.5458 13.8675 65.5458 13.3925C65.5458 12.925 65.2175 12.7033 64.7092 12.5642L63.8242 12.3183C62.4058 11.925 61.4217 11.195 61.4217 9.82667C61.4217 7.98167 62.6192 6.91583 64.6767 6.91583C66.1933 6.91583 67.3 7.5225 67.9975 8.73583L66.2342 9.69417C65.9067 9.1125 65.4392 8.71083 64.6033 8.71083C63.955 8.71083 63.6442 9.06333 63.6442 9.4C63.6442 9.785 63.9308 10.0717 64.98 10.4167L66.0625 10.7683C67.21 11.1458 67.8167 11.8917 67.8083 13.1875C67.8083 15.1058 66.0208 15.9667 64.3483 15.9667C62.84 15.9667 61.21 15.0317 60.7667 13.54ZM52.9708 13.54L54.7833 12.7525C55.095 13.5558 55.7092 14.0975 56.6358 14.0975C57.3658 14.0975 57.7508 13.8675 57.7508 13.3925C57.7508 12.925 57.4233 12.7033 56.915 12.5642L56.0292 12.3183C54.6108 11.925 53.6275 11.195 53.6275 9.82667C53.6275 7.98167 54.8242 6.91583 56.8817 6.91583C58.3983 6.91583 59.505 7.5225 60.2025 8.73583L58.44 9.69417C58.1117 9.1125 57.6442 8.71083 56.8083 8.71083C56.16 8.71083 55.8492 9.06333 55.8492 9.4C55.8492 9.785 56.1358 10.0717 57.185 10.4167L58.2675 10.7683C59.415 11.1458 60.0217 11.8917 60.0133 13.1875C60.0133 15.1058 58.2258 15.9667 56.5542 15.9667C55.0458 15.9667 53.4142 15.0317 52.9708 13.54ZM49.8742 14.7367C49.185 15.6633 48.4067 15.9667 47.2825 15.9667C45.6767 15.9667 44.0942 14.975 44.0942 13.2117C44.0942 11.2608 45.8325 10.7367 47.4475 10.7367H49.7183C49.7183 9.47333 49.1517 8.91583 48.1933 8.91583C47.3408 8.91583 46.7175 9.35 46.3242 10.0475L44.5533 8.77667C45.4225 7.57167 46.5867 6.91583 48.1683 6.91583C50.4892 6.91583 51.9233 8.2925 51.9233 10.7358V15.8025H50.0458L49.8742 14.7367ZM47.71 14.0317C48.5867 14.0317 49.7183 13.3592 49.7183 12.3758H47.8158C47.2825 12.3758 46.4467 12.5475 46.4467 13.2283C46.4467 13.695 46.9633 14.0317 47.71 14.0317ZM42.6208 15.8025H40.35V7.4975L37.6117 14.7692H35.35L32.6117 7.4975V15.8025H30.3408V3.93167H33.4317L36.4983 12.04L39.5317 3.93167H42.6217L42.6208 15.8025Z" fill="#111827"/>
</g>
</g>
</g>
</g>
<defs>
<clipPath id="clip0_864_387">
<rect width="125.833" height="20" fill="white"/>
</clipPath>
</defs>
</svg>
