<svg width="21" height="21" viewBox="0 0 21 21" fill="none" xmlns="http://www.w3.org/2000/svg">
<path id="Vector" d="M12.6289 6.69519C13.4451 7.78543 14.7545 8.43704 16.1381 8.43704C18.5279 8.43704 20.47 6.55654 20.47 4.24245C20.47 1.92835 18.5279 0.0478516 16.1381 0.0478516C13.7483 0.0478516 11.8062 1.92835 11.8062 4.24245L11.8166 4.53612L7.81395 7.02667L7.62391 6.86913C6.83771 6.21374 5.83804 5.85326 4.80455 5.85326C2.41471 5.85326 0.472656 7.73376 0.472656 10.0479C0.472656 12.3619 2.41471 14.2424 4.80455 14.2424C5.83414 14.2424 6.83381 13.8807 7.62391 13.2266L7.81395 13.069L11.8193 15.5596L11.8089 15.8079V15.8533C11.8089 18.1674 13.7509 20.0479 16.1408 20.0479C18.5306 20.0479 20.4727 18.1674 20.4727 15.8533C20.4727 13.5392 18.5306 11.6587 16.1408 11.6587C14.761 11.6587 13.449 12.3103 12.6353 13.4005L12.4517 13.6488L8.90358 11.4381L8.97387 11.2062C9.09102 10.8217 9.14699 10.4285 9.14699 10.0415C9.14699 9.65461 9.08971 9.26387 8.97387 8.87693L8.90358 8.64502L12.4517 6.43428L12.6353 6.68257L12.6289 6.69519ZM16.1381 1.98369C17.4241 1.98369 18.4707 2.99704 18.4707 4.24232C18.4707 5.48759 17.4241 6.50094 16.1381 6.50094C14.8521 6.50094 13.8055 5.48759 13.8055 4.24232C13.8055 2.99704 14.8521 1.98369 16.1381 1.98369ZM4.80853 12.3088C3.52249 12.3088 2.47598 11.2955 2.47598 10.0502C2.47598 8.80494 3.52249 7.79159 4.80853 7.79159C6.09457 7.79159 7.14109 8.80494 7.14109 10.0502C7.14109 11.2955 6.09457 12.3088 4.80853 12.3088ZM16.1381 13.5995C17.4241 13.5995 18.4707 14.6128 18.4707 15.8581C18.4707 17.1034 17.4241 18.1167 16.1381 18.1167C14.8521 18.1167 13.8055 17.1034 13.8055 15.8581C13.8055 14.6128 14.8521 13.5995 16.1381 13.5995Z" fill="black"/>
</svg>
