<svg width="21" height="21" viewBox="0 0 21 21" fill="none" xmlns="http://www.w3.org/2000/svg">
<g id="Group 14138">
<path id="Vector" d="M0.472656 12.195C0.472656 13.4954 0.977887 14.7135 1.8959 15.634L4.9336 18.6717C5.85035 19.5884 7.07355 20.0949 8.37258 20.0949H12.6677C13.9681 20.0949 15.1862 19.5897 16.1066 18.6717L19.1443 15.634C20.0611 14.7172 20.5676 13.494 20.5676 12.195V7.89992C20.5676 6.5995 20.0623 5.38139 19.1443 4.46094L16.1066 1.42324C15.1899 0.506494 13.9667 0 12.6677 0H8.37258C7.07216 0 5.85404 0.50523 4.9336 1.42324L1.8959 4.46094C0.979151 5.37769 0.472656 6.6009 0.472656 7.89992V12.195ZM2.4176 7.89992C2.4176 7.12246 2.72276 6.38929 3.27356 5.83848L6.31127 2.80078C6.86207 2.24997 7.59522 1.94481 8.37271 1.94481H12.6678C13.4452 1.94481 14.1822 2.24997 14.7292 2.80078L17.7669 5.83848C18.3177 6.38929 18.6229 7.12243 18.6229 7.89992V12.195C18.6229 12.9725 18.3177 13.7056 17.7669 14.2564L14.7292 17.2941C14.1784 17.8449 13.4453 18.1501 12.6678 18.1501H8.37271C7.59525 18.1501 6.85828 17.8449 6.31127 17.2941L3.27356 14.2564C2.72276 13.7056 2.4176 12.9725 2.4176 12.195V7.89992Z" fill="black"/>
<path id="Vector_2" d="M10.5211 14.5842C13.0232 14.5842 15.0593 12.5481 15.0593 10.046C15.0593 7.5439 13.0232 5.50781 10.5211 5.50781C8.019 5.50781 5.98291 7.5439 5.98291 10.046C5.98291 12.5481 8.019 14.5842 10.5211 14.5842ZM10.5211 7.45275C11.9507 7.45275 13.1144 8.61641 13.1144 10.046C13.1144 11.4756 11.9507 12.6393 10.5211 12.6393C9.09151 12.6393 7.92785 11.4756 7.92785 10.046C7.92785 8.61641 9.09151 7.45275 10.5211 7.45275Z" fill="black"/>
</g>
</svg>
