<svg width="21" height="21" viewBox="0 0 21 21" fill="none" xmlns="http://www.w3.org/2000/svg">
<g id="Group">
<path id="Vector" d="M10.7722 14.3341C10.215 13.7769 9.30792 13.7769 8.75076 14.3341L8.32933 14.7555L5.765 12.1912L6.18644 11.7697C6.74358 11.2126 6.74358 10.3055 6.18644 9.74832L4.33644 7.89832C3.7793 7.34118 2.87217 7.34118 2.31501 7.89832L1.51502 8.69832C0.843594 9.36974 0.472168 10.2697 0.472168 11.2268V11.7196C0.472168 12.6696 0.843594 13.5696 1.51502 14.248L6.27201 19.005C6.94344 19.6765 7.84343 20.0479 8.80045 20.0479H9.2933C10.2504 20.0479 11.1433 19.6765 11.8217 19.005L12.6217 18.205C13.1789 17.6479 13.1789 16.7408 12.6217 16.1836L10.7722 14.3341ZM10.8079 17.9912C10.4008 18.3983 9.86505 18.6198 9.29363 18.6198H8.80079C8.22936 18.6198 7.68651 18.3983 7.28651 17.9912L2.52951 13.2342C2.12952 12.8342 1.90095 12.2842 1.90095 11.7199V11.2271C1.90095 10.6628 2.12952 10.1128 2.52951 9.7128L3.32951 8.91281L5.17951 10.7628L4.2581 11.6842C3.97952 11.9628 3.97952 12.4128 4.2581 12.6913L7.8295 16.2627C8.10808 16.5413 8.55807 16.5413 8.83663 16.2627L9.75804 15.3413L11.608 17.1913L10.8079 17.9912Z" fill="black"/>
<path id="Vector_2" d="M19.0508 0.0484542H1.90805C1.12234 0.0484542 0.479492 0.691307 0.479492 1.47702V6.34121C0.479492 6.73408 0.800907 7.05549 1.19377 7.05549C1.58664 7.05549 1.90805 6.73408 1.90805 6.34121V3.9554L6.73659 7.06258L6.40087 7.3983C6.12229 7.67688 6.12229 8.12687 6.40087 8.40543C6.54373 8.54828 6.72228 8.61257 6.90802 8.61257C7.09376 8.61257 7.27231 8.54114 7.41517 8.40543L7.97231 7.84829L10.0937 9.21257C10.2151 9.29115 10.3437 9.32686 10.4794 9.32686C10.6151 9.32686 10.7509 9.29115 10.8651 9.21257L12.9865 7.84829L18.0366 12.8983H12.6151C12.2222 12.8983 11.9008 13.2197 11.9008 13.6126C11.9008 14.0055 12.2222 14.3269 12.6151 14.3269H19.0436C19.8293 14.3269 20.4722 13.684 20.4722 12.8983V1.4769C20.4722 0.691193 19.8293 0.0483398 19.0436 0.0483398L19.0508 0.0484542ZM10.4794 7.76977L1.90805 2.25552V1.47697H19.0508V2.25552L10.4794 7.76977ZM19.0508 3.9554V11.8911L14.2223 7.06258L19.0508 3.9554Z" fill="black"/>
</g>
</svg>
