<svg width="21" height="21" viewBox="0 0 21 21" fill="none" xmlns="http://www.w3.org/2000/svg">
<path id="Vector" d="M2.08601 16.9191C2.58873 18.7615 4.27579 20.0481 6.18586 20.0481H14.7558C16.6684 20.0481 18.3554 18.7615 18.8557 16.9153L20.3172 11.5508C20.4205 11.1866 20.4722 10.8086 20.4722 10.4255C20.4722 8.4508 19.124 6.75459 17.1913 6.29973L17.0136 6.25814L16.4328 4.4158C15.6075 1.80221 13.2111 0.0480957 10.4722 0.0480957C7.73432 0.0480957 5.33663 1.8035 4.51157 4.4158L3.93073 6.25437L3.75308 6.29595C1.82159 6.75089 0.472168 8.44832 0.472168 10.4217C0.472168 10.8086 0.523827 11.1828 0.620842 11.5382L2.0849 16.9166L2.08601 16.9191ZM6.35584 4.99932C6.92658 3.19604 8.57836 1.98248 10.4721 1.98248C12.3659 1.98248 14.0162 3.19601 14.5846 4.99932L14.955 6.1763H5.98537L6.35584 4.99932ZM4.72045 8.11191H16.2185C17.4923 8.11191 18.5317 9.1503 18.5317 10.4281C18.5317 10.6373 18.5065 10.844 18.4511 11.038L16.987 16.4125C16.7124 17.4156 15.7939 18.1163 14.7544 18.1163H6.18444C5.14624 18.1163 4.22651 17.4156 3.95183 16.4125L2.48777 11.0341C2.43233 10.8375 2.40713 10.6347 2.40713 10.428C2.40713 9.1502 3.4454 8.11191 4.72045 8.11191Z" fill="black"/>
</svg>
