<svg width="21" height="21" viewBox="0 0 21 21" fill="none" xmlns="http://www.w3.org/2000/svg">
<g id="Group 14108">
<path id="Vector" d="M0.472656 11.6426C0.472656 14.0215 0.472656 15.3306 1.04996 16.4877C1.28671 16.9637 1.59184 17.4043 1.95394 17.7942C2.83513 18.7412 4.06444 19.2008 6.2902 20.0339C6.79283 20.2213 7.35367 19.9655 7.54108 19.4629C7.72845 18.9603 7.47271 18.3994 6.97009 18.212C4.95708 17.4575 3.94676 17.0776 3.37182 16.4649C3.13507 16.2117 2.94137 15.9268 2.78564 15.6192C2.41343 14.8709 2.41343 13.7885 2.41343 11.6388V8.4559C2.41343 6.30362 2.41343 5.22491 2.78564 4.47551C2.93756 4.16785 3.13506 3.883 3.37182 3.62977C3.94281 3.01701 4.95312 2.63845 6.97009 1.88263C7.47272 1.69525 7.72844 1.13438 7.54108 0.631755C7.39548 0.243082 7.02198 0 6.63078 0C6.51684 0 6.40416 0.0189909 6.2902 0.0620379C4.06321 0.895098 2.83908 1.35469 1.95394 2.3017C1.59058 2.69038 1.28672 3.13097 1.04996 3.60826C0.472656 4.76795 0.472656 6.07833 0.472656 8.45338V11.6426Z" fill="black"/>
<path id="Vector_2" d="M6.63086 10.051C6.63086 10.5852 7.06893 11.0233 7.60319 11.0233H18.2217L14.7475 14.4974C14.388 14.857 14.3171 15.4115 14.5817 15.7876C14.7539 16.0306 15.0096 16.18 15.2983 16.2054C15.5869 16.2307 15.8655 16.1281 16.0693 15.923L19.5434 12.4489C19.9156 12.0767 20.1879 11.6677 20.3474 11.2436C20.8108 10.0117 20.5158 8.62541 19.5954 7.70108L16.0694 4.17509C15.8617 3.96746 15.5769 3.86744 15.2844 3.89656C14.9894 3.92568 14.7337 4.0814 14.5653 4.33715C14.3158 4.71319 14.3804 5.23477 14.721 5.57535L18.2217 9.07606H7.60321C7.06894 9.07606 6.63088 9.51413 6.63088 10.0484L6.63086 10.051Z" fill="black"/>
</g>
</svg>
