<svg width="20" height="20" viewBox="0 0 20 20" fill="none" xmlns="http://www.w3.org/2000/svg">
<path id="Vector" d="M19.4727 6.49288C19.4727 5.70282 19.2428 4.93908 18.8047 4.28309L17.1648 1.82193C16.4227 0.712237 15.185 0.0478516 13.8492 0.0478516H6.09611C4.76025 0.0478516 3.52256 0.709846 2.7805 1.82193L1.14059 4.28309C0.702481 4.93908 0.472656 5.70521 0.472656 6.49288V15.064C0.472656 17.2618 2.25858 19.0479 4.4563 19.0479H15.4879C17.6856 19.0479 19.4716 17.2618 19.4716 15.064V6.49288H19.4727ZM10.8925 1.88662H13.8491C14.5697 1.88662 15.234 2.24575 15.6326 2.84308L17.4473 5.56402H10.8924L10.8925 1.88662ZM4.31368 2.84308C4.71229 2.24575 5.38022 1.88662 6.09722 1.88662H9.05381V5.56402H2.49889L4.31368 2.84308ZM17.6341 15.064C17.6341 16.2467 16.6717 17.2092 15.489 17.2092H4.4574C3.27475 17.2092 2.31236 16.2467 2.31236 15.064V7.40276H9.05391V10.4673C9.05391 10.9724 9.46808 11.3866 9.97321 11.3866C10.4783 11.3866 10.8925 10.9724 10.8925 10.4673V7.40276H17.6341V15.064Z" fill="black"/>
</svg>
