<svg width="21" height="20" viewBox="0 0 21 20" fill="none" xmlns="http://www.w3.org/2000/svg">
<path id="Vector" d="M0.477945 15.6764C0.477945 17.5369 2.06775 19.0479 4.02539 19.0479H16.9252C18.8829 19.0479 20.4727 17.5369 20.4727 15.6764V7.83943C20.4727 6.4722 19.7634 5.19474 18.573 4.42481L12.9228 0.764982C12.1972 0.295681 11.3494 0.0478516 10.4714 0.0478516C9.59457 0.0478516 8.7455 0.295678 8.01989 0.764982L2.37235 4.42481C1.18189 5.19462 0.472656 6.47208 0.472656 7.83943V15.6764H0.477945ZM12.7328 17.2089H8.21783V12.918C8.21783 11.7351 9.23066 10.7726 10.4753 10.7726C11.7199 10.7726 12.7328 11.7351 12.7328 12.918V17.2089ZM2.41292 7.83943C2.41292 7.07918 2.80597 6.37161 3.46732 5.9454L9.11743 2.28558C9.92367 1.76479 11.0335 1.76479 11.836 2.28558L17.4861 5.9454C18.1475 6.374 18.5405 7.08277 18.5405 7.83943V15.6764C18.5405 16.5229 17.8186 17.2089 16.928 17.2089H14.6705V12.918C14.6705 10.7199 12.791 8.93361 10.4781 8.93361C8.1652 8.93361 6.28567 10.7199 6.28567 12.918V17.2089H4.0282C3.13756 17.2089 2.41572 16.5229 2.41572 15.6764V7.83943H2.41292Z" fill="black"/>
</svg>
