<svg width="21" height="21" viewBox="0 0 21 21" fill="none" xmlns="http://www.w3.org/2000/svg">
<path id="Vector" d="M2.0865 16.9189C2.58922 18.7612 4.27628 20.0479 6.18635 20.0479H14.7563C16.6689 20.0479 18.3559 18.7612 18.8562 16.9151L20.3177 11.5506C20.421 11.1864 20.4727 10.8083 20.4727 10.4252C20.4727 8.45056 19.1245 6.75435 17.1917 6.29948L17.0141 6.2579L16.4333 4.41555C15.608 1.80196 13.2116 0.0478516 10.4727 0.0478516C7.73481 0.0478516 5.33712 1.80325 4.51205 4.41555L3.93122 6.25412L3.75357 6.29571C1.82208 6.75064 0.472656 8.44807 0.472656 10.4215C0.472656 10.8083 0.524315 11.1826 0.62133 11.5379L2.08539 16.9164L2.0865 16.9189ZM6.35633 4.99908C6.92707 3.1958 8.57885 1.98224 10.4726 1.98224C12.3664 1.98224 14.0167 3.19577 14.5851 4.99908L14.9555 6.17606H5.98586L6.35633 4.99908ZM4.72094 8.11166H16.219C17.4928 8.11166 18.5322 9.15005 18.5322 10.4278C18.5322 10.637 18.507 10.8437 18.4516 11.0378L16.9875 16.4123C16.7129 17.4154 15.7944 18.116 14.7549 18.116H6.18493C5.14673 18.116 4.22699 17.4154 3.95232 16.4123L2.48826 11.0339C2.43282 10.8373 2.40762 10.6344 2.40762 10.4277C2.40762 9.14996 3.44589 8.11166 4.72094 8.11166Z" fill="black"/>
</svg>
