<svg width="20" height="20" viewBox="0 0 20 20" fill="none" xmlns="http://www.w3.org/2000/svg">
<path id="Vector" d="M10 20C4.48889 20 0 15.5111 0 10C0 4.48889 4.48889 0 10 0C15.5111 0 20 4.48889 20 10C20 15.5111 15.5111 20 10 20ZM10 1.33333C5.22222 1.33333 1.33333 5.22222 1.33333 10C1.33333 14.7778 5.22222 18.6667 10 18.6667C14.7778 18.6667 18.6667 14.7778 18.6667 10C18.6667 5.22222 14.7778 1.33333 10 1.33333ZM15.3333 10C15.3333 9.62222 15.0444 9.33333 14.6667 9.33333H5.33333C4.95556 9.33333 4.66667 9.62222 4.66667 10C4.66667 10.3778 4.95556 10.6667 5.33333 10.6667H14.6667C15.0444 10.6667 15.3333 10.3778 15.3333 10Z" fill="black"/>
</svg>
