<svg width="41" height="50" viewBox="0 0 41 50" fill="none" xmlns="http://www.w3.org/2000/svg">
<g id="Group 14115">
<path id="Vector" d="M19.2605 9.46289H15.5964C15.3704 9.46289 15.1536 9.55268 14.9938 9.71251C14.8339 9.87233 14.7441 10.0891 14.7441 10.3151V13.9769C14.7441 14.203 14.8339 14.4197 14.9938 14.5796C15.1536 14.7394 15.3704 14.8292 15.5964 14.8292H19.2605C19.4865 14.8292 19.7033 14.7394 19.8631 14.5796C20.0229 14.4197 20.1127 14.203 20.1127 13.9769V10.3151C20.1127 10.0891 20.0229 9.87233 19.8631 9.71251C19.7033 9.55268 19.4865 9.46289 19.2605 9.46289ZM18.4082 13.1247H16.4486V11.1674H18.4082V13.1247Z" fill="black"/>
<path id="Vector_2" d="M24.8933 14.8292H28.5568C28.7828 14.8292 28.9996 14.7394 29.1594 14.5796C29.3192 14.4197 29.409 14.203 29.409 13.9769V10.3151C29.409 10.0891 29.3192 9.87233 29.1594 9.71251C28.9996 9.55268 28.7828 9.46289 28.5568 9.46289H24.8933C24.6672 9.46289 24.4505 9.55268 24.2906 9.71251C24.1308 9.87233 24.041 10.0891 24.041 10.3151V13.9769C24.041 14.203 24.1308 14.4197 24.2906 14.5796C24.4505 14.7394 24.6672 14.8292 24.8933 14.8292ZM25.7455 11.1651H27.7045V13.1247H25.7455V11.1651Z" fill="black"/>
<path id="Vector_3" d="M15.5964 24.286H19.2605C19.4865 24.286 19.7033 24.1962 19.8631 24.0363C20.0229 23.8765 20.1127 23.6597 20.1127 23.4337V19.7719C20.1127 19.5459 20.0229 19.3291 19.8631 19.1693C19.7033 19.0095 19.4865 18.9197 19.2605 18.9197H15.5964C15.3704 18.9197 15.1536 19.0095 14.9938 19.1693C14.8339 19.3291 14.7441 19.5459 14.7441 19.7719V23.436C14.7447 23.6616 14.8348 23.8778 14.9946 24.0371C15.1543 24.1965 15.3707 24.286 15.5964 24.286ZM16.4486 20.6219H18.4082V22.5815H16.4486V20.6219Z" fill="black"/>
<path id="Vector_4" d="M24.041 23.4337C24.041 23.6597 24.1308 23.8765 24.2906 24.0363C24.4505 24.1962 24.6672 24.286 24.8933 24.286H28.5568C28.7828 24.286 28.9996 24.1962 29.1594 24.0363C29.3192 23.8765 29.409 23.6597 29.409 23.4337V19.7719C29.409 19.5459 29.3192 19.3291 29.1594 19.1693C28.9996 19.0095 28.7828 18.9197 28.5568 18.9197H24.8933C24.6672 18.9197 24.4505 19.0095 24.2906 19.1693C24.1308 19.3291 24.041 19.5459 24.041 19.7719V23.4337ZM25.7455 20.6219H27.7045V22.5815H25.7455V20.6219Z" fill="black"/>
<path id="Vector_5" d="M22.0173 9.46289C21.7913 9.46289 21.5745 9.55268 21.4147 9.71251C21.2548 9.87233 21.165 10.0891 21.165 10.3151V13.9769C21.165 14.203 21.2548 14.4197 21.4147 14.5796C21.5745 14.7394 21.7913 14.8292 22.0173 14.8292C22.2433 14.8292 22.4601 14.7394 22.6199 14.5796C22.7797 14.4197 22.8695 14.203 22.8695 13.9769V10.3151C22.8695 10.0891 22.7797 9.87233 22.6199 9.71251C22.4601 9.55268 22.2433 9.46289 22.0173 9.46289Z" fill="black"/>
<path id="Vector_6" d="M24.8933 17.7457H28.5568C28.7828 17.7457 28.9996 17.656 29.1594 17.4961C29.3192 17.3363 29.409 17.1195 29.409 16.8935C29.409 16.6675 29.3192 16.4507 29.1594 16.2909C28.9996 16.131 28.7828 16.0413 28.5568 16.0413H24.8933C24.6672 16.0413 24.4505 16.131 24.2906 16.2909C24.1308 16.4507 24.041 16.6675 24.041 16.8935C24.041 17.1195 24.1308 17.3363 24.2906 17.4961C24.4505 17.656 24.6672 17.7457 24.8933 17.7457Z" fill="black"/>
<path id="Vector_7" d="M22.8695 23.4337V22.5275C22.8695 22.3015 22.7797 22.0847 22.6199 21.9249C22.4601 21.7651 22.2433 21.6753 22.0173 21.6753C21.7913 21.6753 21.5745 21.7651 21.4147 21.9249C21.2548 22.0847 21.165 22.3015 21.165 22.5275V23.4337C21.165 23.6598 21.2548 23.8765 21.4147 24.0364C21.5745 24.1962 21.7913 24.286 22.0173 24.286C22.2433 24.286 22.4601 24.1962 22.6199 24.0364C22.7797 23.8765 22.8695 23.6598 22.8695 23.4337Z" fill="black"/>
<path id="Vector_8" d="M18.999 16.8935C18.999 17.1195 19.0888 17.3363 19.2486 17.4961C19.4085 17.656 19.6252 17.7457 19.8513 17.7457H21.1654V20.3593C21.1654 20.5853 21.2552 20.8021 21.415 20.9619C21.5749 21.1217 21.7916 21.2115 22.0177 21.2115C22.2437 21.2115 22.4605 21.1217 22.6203 20.9619C22.7801 20.8021 22.8699 20.5853 22.8699 20.3593V16.8935C22.8699 16.6675 22.7801 16.4507 22.6203 16.2909C22.4605 16.131 22.2437 16.0413 22.0177 16.0413H19.8513C19.6252 16.0413 19.4085 16.131 19.2486 16.2909C19.0888 16.4507 18.999 16.6675 18.999 16.8935Z" fill="black"/>
<path id="Vector_9" d="M15.4387 17.7457H17.4272C17.6533 17.7457 17.87 17.656 18.0299 17.4961C18.1897 17.3363 18.2795 17.1195 18.2795 16.8935C18.2795 16.6675 18.1897 16.4507 18.0299 16.2909C17.87 16.131 17.6533 16.0413 17.4272 16.0413H15.4387C15.2126 16.0413 14.9959 16.131 14.836 16.2909C14.6762 16.4507 14.5864 16.6675 14.5864 16.8935C14.5864 17.1195 14.6762 17.3363 14.836 17.4961C14.9959 17.656 15.2126 17.7457 15.4387 17.7457Z" fill="black"/>
<path id="Vector_10" d="M10.9103 13.5387C11.1364 13.5387 11.3531 13.4489 11.513 13.2891C11.6728 13.1293 11.7626 12.9125 11.7626 12.6865V2.88058C11.7636 2.56809 11.8886 2.26879 12.11 2.04831C12.3315 1.82783 12.6313 1.70418 12.9438 1.70448H31.0505C31.363 1.70418 31.6628 1.82783 31.8843 2.04831C32.1057 2.26879 32.2307 2.56809 32.2317 2.88058V18.3976V19.4737L32.0164 19.6891C31.5037 20.1986 31.2061 20.8855 31.1849 21.6081C31.1638 22.3306 31.4207 23.0337 31.9028 23.5724L31.9084 23.5838C31.9415 23.6299 31.9778 23.6735 32.017 23.7145C32.0442 23.7378 32.0738 23.7611 32.1062 23.7844C32.4602 24.1117 32.8923 24.3428 33.3612 24.4554L32.0181 25.7985C31.5049 26.3081 31.207 26.9954 31.1858 27.7183C31.1647 28.4413 31.4219 29.1448 31.9045 29.6836L31.9084 29.6915C31.9415 29.7376 31.9778 29.7813 32.017 29.8222C32.03 29.8353 32.0454 29.8438 32.059 29.8552C32.5654 30.3427 33.2353 30.6241 33.9379 30.6443L32.0181 32.5641C31.7535 32.828 31.5436 33.1415 31.4004 33.4867C31.2572 33.8318 31.1835 34.2018 31.1835 34.5754C31.1835 34.9491 31.2572 35.3191 31.4004 35.6642C31.5436 36.0094 31.7535 36.3228 32.0181 36.5867C32.0869 36.6492 32.1587 36.7082 32.2334 36.7634V38.8935C32.2331 39.2067 32.1086 39.507 31.8872 39.7286C31.6657 39.9501 31.3655 40.0748 31.0522 40.0752H17.4294C17.2034 40.0752 16.9866 40.165 16.8268 40.3249C16.667 40.4847 16.5772 40.7015 16.5772 40.9275C16.5772 41.1535 16.667 41.3703 16.8268 41.5301C16.9866 41.6899 17.2034 41.7797 17.4294 41.7797H25.9638C24.4167 43.3217 21.4338 45.0461 15.7528 45.2699C15.476 45.279 15.2038 45.3433 14.9521 45.459C14.7005 45.5747 14.4745 45.7395 14.2875 45.9438L11.8961 48.5721C11.8204 48.6548 11.7617 48.7516 11.7234 48.857C11.6852 48.9624 11.6681 49.0743 11.6732 49.1863C11.6782 49.2983 11.7054 49.4082 11.753 49.5097C11.8006 49.6112 11.8678 49.7024 11.9507 49.7779C12.0336 49.8534 12.1306 49.9117 12.2361 49.9497C12.3416 49.9876 12.4535 50.0044 12.5655 49.999C12.6775 49.9936 12.7874 49.9662 12.8887 49.9183C12.9901 49.8703 13.081 49.8029 13.1563 49.7198L15.5482 47.0915C15.5825 47.0551 15.6236 47.0261 15.6693 47.006C15.715 46.9859 15.7642 46.9751 15.8141 46.9744C23.4627 46.6727 26.8007 43.7547 28.1921 41.7809H31.0505C31.8156 41.7798 32.5491 41.4754 33.09 40.9343C33.631 40.3932 33.9353 39.6597 33.9362 38.8946V37.4123C33.9669 37.4123 33.9964 37.4208 34.0277 37.4208C34.4014 37.4217 34.7716 37.3486 35.1168 37.2055C35.462 37.0624 35.7755 36.8523 36.039 36.5873L38.0321 34.5942C38.4256 34.2031 38.6958 33.7051 38.809 33.1619C38.9223 32.6188 38.8738 32.0543 38.6694 31.5385C38.4651 31.0226 38.1139 30.5781 37.6593 30.2599C37.2048 29.9417 36.6669 29.7638 36.1123 29.7483L38.0321 27.8285C38.5647 27.2947 38.8638 26.5714 38.8638 25.8172C38.8638 25.0631 38.5647 24.3398 38.0321 23.8059C37.6618 23.4384 37.1965 23.1811 36.6884 23.0628L38.0321 21.7197C38.4451 21.3101 38.7221 20.7833 38.8253 20.2109C38.9284 19.6384 38.8529 19.0481 38.6088 18.5201C38.3648 17.9921 37.9641 17.5521 37.4612 17.2598C36.9583 16.9674 36.3776 16.8371 35.7981 16.8863L39.2945 13.3864C39.5793 13.1022 39.8053 12.7647 39.9596 12.3931C40.1139 12.0215 40.1935 11.6232 40.1939 11.2209C40.1942 10.8185 40.1154 10.4201 39.9617 10.0482C39.8081 9.67635 39.5827 9.3384 39.2985 9.05365C39.0143 8.76889 38.6767 8.5429 38.3052 8.3886C37.9336 8.23429 37.5353 8.15468 37.1329 8.15431C36.7306 8.15394 36.3321 8.23282 35.9603 8.38644C35.5884 8.54007 35.2505 8.76543 34.9657 9.04967L33.9362 10.0797V2.88058C33.9347 2.11618 33.63 1.38359 33.089 0.843556C32.548 0.303522 31.8149 0.000148992 31.0505 0H12.9438C12.1794 0.000148992 11.4463 0.303522 10.9053 0.843556C10.3643 1.38359 10.0596 2.11618 10.0581 2.88058V12.6865C10.0581 12.9125 10.1479 13.1293 10.3077 13.2891C10.4675 13.4489 10.6843 13.5387 10.9103 13.5387ZM36.827 33.3891L34.8339 35.3822C34.6168 35.5897 34.328 35.7055 34.0277 35.7055C33.7274 35.7055 33.4386 35.5897 33.2215 35.3822C33.1156 35.2764 33.0315 35.1508 32.9742 35.0125C32.9169 34.8742 32.8874 34.726 32.8874 34.5763C32.8874 34.4266 32.9169 34.2784 32.9742 34.1401C33.0315 34.0018 33.1156 33.8762 33.2215 33.7704L35.2146 31.7767C35.4295 31.5682 35.7178 31.4526 36.0172 31.4549C36.3166 31.4571 36.6031 31.5771 36.8149 31.7888C37.0266 32.0005 37.1466 32.2871 37.1488 32.5865C37.1511 32.8859 37.0355 33.1742 36.827 33.3891ZM36.827 26.6235L34.8339 28.6166C34.6198 28.8298 34.3299 28.9495 34.0277 28.9495C33.7255 28.9495 33.4356 28.8298 33.2215 28.6166C33.1155 28.5107 33.0315 28.385 32.9742 28.2467C32.9168 28.1084 32.8873 27.9601 32.8873 27.8103C32.8873 27.6606 32.9168 27.5123 32.9742 27.374C33.0315 27.2357 33.1155 27.11 33.2215 27.0041L35.2146 25.011C35.3198 24.9025 35.4457 24.816 35.5847 24.7565C35.7237 24.6971 35.8732 24.6659 36.0244 24.6647C36.1756 24.6636 36.3255 24.6925 36.4654 24.7499C36.6053 24.8072 36.7324 24.8918 36.8393 24.9987C36.9463 25.1056 37.0308 25.2327 37.0882 25.3726C37.1455 25.5125 37.1744 25.6625 37.1733 25.8137C37.1721 25.9649 37.1409 26.1143 37.0815 26.2533C37.022 26.3924 36.9355 26.5182 36.827 26.6235ZM36.827 18.9021C37.0403 19.1161 37.1601 19.4059 37.1601 19.7081C37.1601 20.0102 37.0403 20.3001 36.827 20.514L34.8339 22.5071C34.62 22.7201 34.3304 22.8397 34.0285 22.8397C33.7267 22.8397 33.4371 22.7201 33.2232 22.5071L33.2198 22.5032C33.114 22.3976 33.0301 22.2722 32.9729 22.1343C32.9157 21.9963 32.8862 21.8483 32.8862 21.6989C32.8862 21.5495 32.9157 21.4016 32.9729 21.2636C33.0301 21.1256 33.114 21.0002 33.2198 20.8947L35.2129 18.9016C35.4269 18.6881 35.7168 18.5682 36.0191 18.5682C36.3214 18.5682 36.6113 18.6881 36.8253 18.9016L36.827 18.9021ZM36.1708 10.2547C36.43 10.008 36.7742 9.87034 37.1321 9.87034C37.49 9.87034 37.8342 10.008 38.0934 10.2547C38.2216 10.3799 38.3235 10.5295 38.393 10.6947C38.4625 10.8598 38.4984 11.0372 38.4984 11.2164C38.4984 11.3955 38.4625 11.5729 38.393 11.738C38.3235 11.9032 38.2216 12.0528 38.0934 12.178L33.9368 16.3386V12.4899L36.1708 10.2547Z" fill="black"/>
<path id="Vector_11" d="M16.1343 33.0505C16.1343 33.2765 16.2241 33.4933 16.3839 33.6531C16.5437 33.8129 16.7605 33.9027 16.9865 33.9027H27.9395C28.1656 33.9027 28.3823 33.8129 28.5422 33.6531C28.702 33.4933 28.7918 33.2765 28.7918 33.0505C28.7918 32.8245 28.702 32.6077 28.5422 32.4479C28.3823 32.288 28.1656 32.1982 27.9395 32.1982H16.9865C16.7605 32.1982 16.5437 32.288 16.3839 32.4479C16.2241 32.6077 16.1343 32.8245 16.1343 33.0505Z" fill="black"/>
<path id="Vector_12" d="M20.9587 36.1738C20.7327 36.1738 20.5159 36.2636 20.3561 36.4234C20.1962 36.5833 20.1064 36.8 20.1064 37.0261C20.1064 37.2521 20.1962 37.4689 20.3561 37.6287C20.5159 37.7885 20.7327 37.8783 20.9587 37.8783H23.9643C24.1903 37.8783 24.4071 37.7885 24.5669 37.6287C24.7267 37.4689 24.8165 37.2521 24.8165 37.0261C24.8165 36.8 24.7267 36.5833 24.5669 36.4234C24.4071 36.2636 24.1903 36.1738 23.9643 36.1738H20.9587Z" fill="black"/>
<path id="Vector_13" d="M2.27495 40.0439L4.21919 38.0099C4.59689 37.6159 4.88198 37.1426 5.05368 36.6246C5.22539 36.1065 5.2794 35.5566 5.21177 35.0151L4.79645 31.6362C4.75814 31.3261 4.79377 31.0113 4.90042 30.7175L9.60309 17.7759C9.65759 17.6226 9.7544 17.4879 9.8823 17.3874C10.0102 17.2868 10.164 17.2246 10.3258 17.2078C10.4801 17.1864 10.6374 17.2093 10.7792 17.274C10.921 17.3387 11.0414 17.4425 11.1263 17.5731C11.3392 17.8954 11.5262 18.2342 11.6854 18.5861C12.6234 21.0218 10.794 25.6768 10.2116 27.0443C10.0645 27.3833 10.0228 27.7587 10.0918 28.1217C10.1608 28.4848 10.3373 28.8187 10.5985 29.0801C11.9405 30.3427 12.902 31.956 13.3739 33.7372C13.8459 35.5183 13.8095 37.396 13.2689 39.1575C13.1947 39.3683 13.2064 39.5998 13.3013 39.8021C13.3962 40.0045 13.5667 40.1614 13.7762 40.2392C13.9857 40.317 14.2174 40.3093 14.4213 40.218C14.6252 40.1266 14.7851 39.9588 14.8665 39.7507C15.5218 37.6833 15.5819 35.4732 15.04 33.3732C14.498 31.2732 13.3758 29.3682 11.8019 27.8761C11.7823 27.8543 11.7696 27.8272 11.7652 27.7983C11.7609 27.7693 11.7651 27.7397 11.7774 27.7131C12.6064 25.7671 14.4103 20.9213 13.2649 17.9487C13.0651 17.4891 12.8259 17.0477 12.5501 16.6294C12.2907 16.2348 11.9259 15.9209 11.4971 15.7232C11.0683 15.5254 10.5926 15.4518 10.1241 15.5107C9.64896 15.5653 9.1985 15.7515 8.8234 16.0482C8.4483 16.3449 8.16344 16.7404 8.00087 17.1902L3.2982 30.1329C3.10052 30.6793 3.03396 31.2645 3.10389 31.8413L3.51979 35.2207C3.55613 35.5118 3.5271 35.8074 3.43481 36.0858C3.34252 36.3642 3.18929 36.6186 2.98628 36.8303L1.04204 38.8666C0.885927 39.0301 0.801159 39.2489 0.80638 39.4749C0.811601 39.7009 0.906384 39.9156 1.06988 40.0717C1.23337 40.2278 1.45218 40.3126 1.67818 40.3074C1.90417 40.3021 2.11884 40.2074 2.27495 40.0439Z" fill="black"/>
</g>
</svg>
