<svg width="94" height="44" viewBox="0 0 94 44" fill="none" xmlns="http://www.w3.org/2000/svg">
<path id="Vector" d="M53.1524 30.6433C52.4805 30.6433 51.9336 30.1003 51.9336 29.4245V28.9401C50.4844 28.6706 49.2422 27.9245 48.5469 26.8581C48.1797 26.2956 48.336 25.5417 48.8985 25.1745C49.461 24.8073 50.2149 24.9636 50.5821 25.5261C50.9375 26.069 51.8673 26.6159 53.1485 26.6159C54.7657 26.6159 55.8946 25.7526 55.8946 24.9753C55.8946 24.1979 54.7657 23.3347 53.1485 23.3347C50.2423 23.3347 47.9688 21.5456 47.9688 19.2605C47.9688 17.3074 49.6329 15.7136 51.9336 15.2957V14.8152C51.9336 14.1433 52.4765 13.5964 53.1524 13.5964C53.8242 13.5964 54.3712 14.1394 54.3712 14.8152V15.2996C55.8204 15.5691 57.0626 16.3152 57.7579 17.3816C58.1251 17.9441 57.9688 18.698 57.4063 19.0652C56.8438 19.4324 56.0899 19.2761 55.7227 18.7136C55.3672 18.1706 54.4375 17.6238 53.1563 17.6238C51.5391 17.6238 50.4102 18.4871 50.4102 19.2644C50.4102 20.0378 51.5391 20.905 53.1563 20.905C56.0625 20.905 58.336 22.6941 58.336 24.9792C58.336 26.9323 56.6719 28.5261 54.3712 28.944V29.4245C54.3712 30.0963 53.8243 30.6433 53.1524 30.6433ZM53.1524 35.116C45.9883 35.116 40.1564 29.2879 40.1564 22.12C40.1564 14.9559 45.9845 9.12397 53.1524 9.12397C60.3165 9.12397 66.1484 14.956 66.1484 22.12C66.1484 29.284 60.3164 35.116 53.1524 35.116ZM53.1524 32.6785C58.9766 32.6785 63.7114 27.9402 63.7114 22.1195C63.7114 16.2953 58.9731 11.5605 53.1524 11.5605C47.3282 11.5605 42.5934 16.2988 42.5934 22.1195C42.5934 27.9437 47.3317 32.6785 53.1524 32.6785ZM90.9374 0.459473H21.1994C20.5275 0.459473 19.9806 1.00244 19.9806 1.67827C19.9806 2.35015 20.5236 2.89707 21.1994 2.89707H90.9374C91.2108 2.89707 91.4413 3.12754 91.4413 3.40098V40.846C91.4413 41.1194 91.2108 41.3499 90.9374 41.3499L21.1994 41.346C20.5275 41.346 19.9806 41.889 19.9806 42.5648C19.9806 43.2367 20.5236 43.7836 21.1994 43.7836H90.9374C92.5585 43.7836 93.8749 42.4672 93.8749 40.8461V3.39709C93.8749 1.77599 92.5585 0.459473 90.9374 0.459473ZM87.4726 10.1079C85.6835 10.1079 84.2265 8.65087 84.2265 6.86177C84.2265 6.18989 83.6835 5.64297 83.0077 5.64297H30.1367C29.4648 5.64297 28.9179 6.18594 28.9179 6.86177C28.9179 7.53364 29.4609 8.08057 30.1367 8.08057H81.9257C82.3984 10.2368 84.1015 11.94 86.2577 12.4126V31.8346C84.1015 32.3072 82.3983 34.0104 81.9257 36.1666L30.1367 36.1627C29.4648 36.1627 28.9179 36.7056 28.9179 37.3815C28.9179 38.0533 29.4609 38.6003 30.1367 38.6003H83.0077H83.0116C83.6835 38.6003 84.2304 38.0573 84.2304 37.3815C84.2304 35.5924 85.6874 34.1354 87.4765 34.1354C88.1484 34.1354 88.6953 33.5924 88.6953 32.9166L88.6914 11.3226C88.6914 10.6507 88.1484 10.1079 87.4726 10.1079ZM11.4606 14.561H26.6836C27.3555 14.561 27.9024 14.018 27.9024 13.3422C27.9024 12.6703 27.3594 12.1234 26.6836 12.1234H11.4606C10.7887 12.1234 10.2418 12.6663 10.2418 13.3422C10.2418 14.0141 10.7887 14.561 11.4606 14.561ZM31.9806 22.1196C31.9806 21.4477 31.4376 20.9008 30.7618 20.9008H1.3438C0.66802 20.9008 0.125 21.4477 0.125 22.1196C0.125 22.7915 0.66797 23.3384 1.3438 23.3384H30.7658C31.4377 23.3384 31.9806 22.7915 31.9806 22.1196ZM21.7266 30.8969C21.7266 30.225 21.1836 29.6781 20.5078 29.6781H5.2848C4.61292 29.6781 4.066 30.221 4.066 30.8969C4.066 31.5688 4.60897 32.1157 5.2848 32.1157H20.5078C21.1797 32.1118 21.7266 31.5688 21.7266 30.8969Z" fill="black"/>
</svg>
