<svg width="27" height="21" viewBox="0 0 27 21" fill="none" xmlns="http://www.w3.org/2000/svg">
<path id="Vector" d="M24.4688 21H2.53125C1.13326 21 0 19.8248 0 18.375V2.625C0 1.17523 1.13326 0 2.53125 0H24.4688C25.8667 0 27 1.17523 27 2.625V18.375C27 19.8248 25.8667 21 24.4688 21ZM5.90625 3.0625C4.27528 3.0625 2.95312 4.43363 2.95312 6.125C2.95312 7.81637 4.27528 9.1875 5.90625 9.1875C7.53722 9.1875 8.85938 7.81637 8.85938 6.125C8.85938 4.43363 7.53722 3.0625 5.90625 3.0625ZM3.375 17.5H23.625V11.375L19.01 6.58902C18.7628 6.33276 18.3622 6.33276 18.115 6.58902L10.9688 14L8.0412 10.964C7.79409 10.7078 7.39341 10.7078 7.14625 10.964L3.375 14.875V17.5Z" fill="#636363"/>
</svg>
