<svg width="7" height="7" viewBox="0 0 7 7" fill="none" xmlns="http://www.w3.org/2000/svg">
<path id="Vector" fill-rule="evenodd" clip-rule="evenodd" d="M6.37022 6.8912C6.51411 7.03509 6.74793 7.03509 6.89182 6.8912C7.03606 6.74696 7.03606 6.51349 6.89182 6.36925L4.02161 3.49939L6.89111 0.629878C7.03535 0.485986 7.03535 0.252165 6.89111 0.108273C6.74688 -0.035964 6.5134 -0.035964 6.36951 0.108273L3.5 2.97743L0.630491 0.107919C0.486599 -0.0359729 0.252778 -0.0359729 0.108886 0.107919C-0.0353508 0.252156 -0.0353508 0.485632 0.108886 0.629869L2.97804 3.49938L0.108178 6.3696C-0.0360592 6.51349 -0.0360592 6.74696 0.108178 6.8912C0.252069 7.03544 0.485891 7.03544 0.629783 6.8912L3.5 4.02098L6.37022 6.8912Z" fill="white"/>
</svg>
