<svg width="12" height="12" viewBox="0 0 12 12" fill="none" xmlns="http://www.w3.org/2000/svg">
<path id="Vector" d="M9.75048 4.87426C9.75048 5.9501 9.40124 6.94389 8.81293 7.75018L11.7803 10.7199C12.0732 11.0128 12.0732 11.4886 11.7803 11.7816C11.4873 12.0746 11.0115 12.0746 10.7185 11.7816L7.75116 8.81195C6.94487 9.40261 5.95107 9.7495 4.87524 9.7495C2.18214 9.7495 0 7.56736 0 4.87426C0 2.18116 2.18214 -0.000976562 4.87524 -0.000976562C7.56834 -0.000976562 9.75048 2.18116 9.75048 4.87426ZM4.87524 8.24943C5.31847 8.24943 5.75736 8.16212 6.16686 7.99251C6.57635 7.82289 6.94843 7.57428 7.26184 7.26086C7.57525 6.94745 7.82387 6.57537 7.99348 6.16588C8.1631 5.75639 8.2504 5.31749 8.2504 4.87426C8.2504 4.43103 8.1631 3.99214 7.99348 3.58264C7.82387 3.17315 7.57525 2.80107 7.26184 2.48766C6.94843 2.17425 6.57635 1.92563 6.16686 1.75602C5.75736 1.5864 5.31847 1.4991 4.87524 1.4991C4.432 1.4991 3.99311 1.5864 3.58362 1.75602C3.17412 1.92563 2.80205 2.17425 2.48864 2.48766C2.17522 2.80107 1.92661 3.17315 1.75699 3.58264C1.58737 3.99214 1.50007 4.43103 1.50007 4.87426C1.50007 5.31749 1.58737 5.75639 1.75699 6.16588C1.92661 6.57537 2.17522 6.94745 2.48864 7.26086C2.80205 7.57428 3.17412 7.82289 3.58362 7.99251C3.99311 8.16212 4.432 8.24943 4.87524 8.24943Z" fill="#3D3D3D"/>
</svg>
