<svg width="80" height="80" viewBox="0 0 80 80" fill="none" xmlns="http://www.w3.org/2000/svg">
<g id="Group 14130">
<path id="Vector" d="M39.9902 49.0419C37.5507 49.0419 35.2674 48.0742 33.5637 46.3302C32.8027 45.554 31.7946 45.1709 30.8017 45.1709C29.8087 45.1709 28.841 45.5338 28.0899 46.2798C26.5677 47.7768 26.5426 50.2264 28.0395 51.7485C31.2251 54.9995 35.474 56.7787 40.0002 56.7787C44.5314 56.7787 48.7754 54.9995 51.9608 51.7485C53.4578 50.2264 53.4326 47.7768 51.9104 46.2798C50.3882 44.7827 47.9236 44.808 46.4416 46.3302C44.728 48.0742 42.4548 49.0419 40.0152 49.0419L39.9902 49.0419Z" fill="black"/>
<path id="Vector_2" d="M32.248 30.9774C32.248 36.1387 24.5061 36.1387 24.5061 30.9774C24.5061 25.8161 32.248 25.8161 32.248 30.9774Z" fill="black"/>
<path id="Vector_3" d="M55.4739 30.9774C55.4739 36.1387 47.7319 36.1387 47.7319 30.9774C47.7319 25.8161 55.4739 25.8161 55.4739 30.9774Z" fill="black"/>
<path id="Vector_4" d="M39.9899 0.0101692C37.6311 0.0101692 35.2268 0.23195 32.8529 0.655331C30.7511 1.02831 29.355 3.05456 29.7279 5.15636C30.1009 7.24811 32.117 8.6543 34.2289 8.28139C36.1493 7.93361 38.0999 7.75216 39.9849 7.75216C57.7772 7.75216 72.243 22.218 72.243 40.0102C72.243 57.8025 57.7772 72.2683 39.9849 72.2683C22.1926 72.2683 7.72684 57.8025 7.72684 40.0102C7.72684 38.115 7.90828 36.1795 8.25608 34.244C8.62906 32.1422 7.23794 30.1261 5.13105 29.743C4.89919 29.7027 4.66733 29.6775 4.43548 29.6775C3.65928 29.6775 2.88813 29.9093 2.24297 30.373C1.39115 30.9678 0.821548 31.8448 0.645161 32.863C0.221781 35.2369 0 37.6512 0 40C0 62.0516 17.9484 80 40 80C62.0516 80 80 62.0516 80 40C80 17.9484 62.0516 0 40 0L39.9899 0.0101692Z" fill="black"/>
<path id="Vector_5" d="M14.813 10.7316C14.6819 10.5401 14.5055 10.3435 14.3241 10.1369C14.1829 10.0058 13.9763 9.82942 13.7444 9.67316C13.563 9.55724 13.3311 9.4413 13.0841 9.33546C12.8372 9.23465 12.6053 9.15401 12.3735 9.11369C12.1164 9.06329 11.8593 9.03809 11.6124 9.03809C10.5942 9.03809 9.60128 9.43627 8.87547 10.1722C8.71923 10.3385 8.53777 10.5451 8.38656 10.7669C8.27063 10.9585 8.13957 11.1903 8.04885 11.4272C7.94804 11.6742 7.86741 11.906 7.82707 12.1379C7.77667 12.4101 7.75146 12.6671 7.75146 12.899C7.75146 13.1308 7.77667 13.3879 7.82707 13.6601C7.87747 13.8919 7.943 14.1238 8.04885 14.3808C8.14966 14.6278 8.27063 14.8445 8.39663 15.0411C8.55288 15.273 8.70409 15.4645 8.87546 15.6459C9.59622 16.3566 10.5891 16.78 11.6124 16.78C11.8442 16.78 12.0912 16.7548 12.3734 16.7044C12.6053 16.6641 12.8372 16.5885 13.0841 16.4826C13.3311 16.3818 13.563 16.2609 13.7797 16.1197C13.9712 15.9887 14.1779 15.8123 14.3745 15.6308C15.07 14.9353 15.4833 13.9272 15.4833 12.9191C15.4833 12.6872 15.4581 12.4402 15.4077 12.158C15.3674 11.9261 15.2918 11.6943 15.1859 11.4473C15.0851 11.2003 14.9642 10.9685 14.823 10.7517L14.813 10.7316Z" fill="black"/>
</g>
</svg>
