<svg xmlns="http://www.w3.org/2000/svg" width="20" height="20" viewBox="0 0 20 20" fill="none">
  <path d="M19.4691 2.8048C19.4691 1.2846 18.2314 0.046875 16.7112 0.046875H13.0339C12.5288 0.046875 12.1146 0.461055 12.1146 0.966185C12.1146 1.47131 12.5288 1.88549 13.0339 1.88549H16.3318L10.3934 7.82393C10.0342 8.18304 10.0342 8.76478 10.3934 9.1227C10.7525 9.48181 11.3462 9.46864 11.6921 9.1227L17.6306 3.18426V6.48214C17.6306 6.98727 18.0447 7.40145 18.5499 7.40145C19.055 7.40145 19.4692 6.98727 19.4692 6.48214L19.4691 2.8048Z" fill="black"/>
  <path d="M1.24598 17.0011C1.58355 17.5062 2.00849 17.9324 2.51481 18.2699C3.67351 19.0456 5.36731 19.0456 8.74406 19.0456C12.1208 19.0456 13.8159 19.0456 14.9733 18.2699C15.4784 17.9323 15.9046 17.5074 16.2421 17.0011C16.9771 15.901 17.0142 14.3162 17.0178 11.3847C17.0178 11.1393 16.9232 10.9095 16.7485 10.7347C16.5737 10.56 16.3439 10.4654 16.0985 10.4654C15.5897 10.4654 15.1792 10.876 15.1792 11.3847C15.1792 14.0421 15.1301 15.3589 14.7159 15.9813C14.5136 16.2841 14.2563 16.5415 13.9558 16.7414C13.2603 17.207 11.6575 17.207 8.74638 17.207C5.83524 17.207 4.23257 17.207 3.53696 16.7414C3.23412 16.5391 2.97915 16.2817 2.77685 15.9813C2.31121 15.2858 2.31122 13.683 2.31122 10.7718C2.31122 7.86069 2.31121 6.25802 2.77685 5.56241C2.97914 5.25957 3.2365 5.00461 3.53696 4.8023C4.1594 4.38573 5.47971 4.33906 8.13351 4.33667C8.63864 4.33667 9.05282 3.92249 9.05282 3.41736C9.05282 2.91223 8.63864 2.49805 8.13351 2.49805C5.19843 2.49805 3.61725 2.53515 2.51714 3.2737C2.0144 3.61127 1.58585 4.03621 1.24831 4.54253C0.472656 5.70123 0.472656 7.39503 0.472656 10.7718C0.472656 14.1485 0.472656 15.8436 1.24831 17.001L1.24598 17.0011Z" fill="black"/>
</svg>