<svg width="25" height="25" viewBox="0 0 25 25" fill="none" xmlns="http://www.w3.org/2000/svg">
<g id="Group 14121">
<circle id="Ellipse 2" cx="12.5" cy="12.5" r="11.5" stroke="white" stroke-width="2"/>
<path id="Vector" d="M11.2096 7C10.545 7 10 7.56579 10 8.25583V8.43243V11.7862C10 13.4181 10.8552 14.9209 12.2302 15.7172L14.2541 16.8848C14.4352 16.9894 14.6336 17.0401 14.8384 17.0401C15.2778 17.0401 15.6858 16.7932 15.8952 16.3958C16.0527 16.1031 16.0889 15.763 16.0007 15.4409C15.9125 15.1188 15.7109 14.8506 15.4274 14.6871L13.4036 13.5195C12.7988 13.1728 12.4239 12.5057 12.4239 11.7862V8.26072C12.4239 7.57068 11.8789 7.00488 11.2143 7.00488L11.2096 7Z" fill="white"/>
</g>
</svg>
