<svg width="80" height="80" viewBox="0 0 80 80" fill="none" xmlns="http://www.w3.org/2000/svg">
<g id="Group 14127">
<path id="Vector" d="M40.0023 42.6649C42.129 42.6649 43.8727 40.8632 43.8727 38.6659V22.6697C43.8727 20.4724 42.129 18.6707 40.0023 18.6707C37.8756 18.6707 36.1318 20.4724 36.1318 22.6697V38.6659C36.1318 40.8632 37.8756 42.6649 40.0023 42.6649Z" fill="black"/>
<path id="Vector_2" d="M36.1974 58.0625C36.2478 58.3541 36.3284 58.5936 36.4292 58.8488C36.53 59.1039 36.6509 59.3434 36.792 59.5673C36.9231 59.7652 37.0894 59.9787 37.2708 60.1557C37.4371 60.3276 37.6437 60.5046 37.8655 60.6608C38.0318 60.765 38.2636 60.9004 38.5257 61.0097C38.7726 61.1139 39.0145 61.1972 39.2463 61.2388C39.8158 61.343 40.214 61.343 40.7683 61.2388C41.0002 61.1972 41.232 61.1191 41.4789 61.0097C41.7259 60.9056 41.9577 60.7806 42.1744 60.6348C42.3659 60.4994 42.5725 60.3172 42.7691 60.1297C42.9102 59.9839 43.0664 59.7808 43.1924 59.5674C43.3486 59.3278 43.4645 59.0987 43.5653 58.8488C43.6661 58.5936 43.7467 58.3437 43.7871 58.1146C43.8375 57.823 43.8627 57.5678 43.8627 57.3283C43.8627 57.0888 43.8375 56.8337 43.7871 56.5421C43.7468 56.3025 43.6712 56.063 43.5653 55.8079C43.4645 55.5527 43.3436 55.3288 43.2176 55.1257C43.0765 54.8966 42.9354 54.7144 42.7136 54.4853C42.5725 54.3395 42.3659 54.1676 42.1341 54.0062C41.9526 53.8864 41.7208 53.7667 41.4739 53.6573C41.2269 53.5532 40.9951 53.4699 40.7633 53.4282C40.5063 53.3761 40.2492 53.3501 39.9872 53.3501C39.7301 53.3501 39.4983 53.3761 39.2665 53.4282C39.0095 53.4803 38.7777 53.548 38.5206 53.6677C38.2485 53.7875 38.0318 53.9073 37.8504 54.027C37.6286 54.1728 37.427 54.3446 37.2557 54.5217C37.0894 54.6935 36.918 54.907 36.7668 55.1465C36.6509 55.3444 36.5199 55.5839 36.4292 55.8287C36.3284 56.0838 36.2478 56.3233 36.2074 56.5629C36.157 56.8284 36.1318 57.0575 36.1318 57.3491C36.1318 57.6407 36.157 57.8698 36.1974 58.0833L36.1974 58.0625Z" fill="black"/>
<path id="Vector_3" d="M78.5903 23.4562C79.6486 21.0298 80.1274 18.3533 79.9712 15.6717C79.4672 6.88741 72.2051 0.00878906 63.4315 0.00878906H61.9347C59.808 0.00878906 58.0642 1.81049 58.0642 4.00783C58.0642 6.20517 59.808 8.00687 61.9347 8.00687H63.4315C68.0377 8.00687 71.9837 11.6571 72.2407 16.1508C72.3163 17.5619 72.0845 18.9209 71.5301 20.1914C68.5871 26.9502 67.0902 33.5629 67.0902 39.8374V40.155C67.0902 46.5805 68.5718 53.1675 71.4899 59.7237C72.0694 61.0306 72.3164 62.4157 72.2358 63.8841C71.9787 68.3623 68.0277 72.0019 63.4366 72.0019H61.9246C59.798 72.0019 58.0542 73.8036 58.0542 76.001C58.0542 78.1983 59.798 80 61.9246 80H63.4366C72.1853 80 79.4473 73.1371 79.9621 64.3784C80.1284 61.6343 79.6244 58.8745 78.5308 56.3959C76.0815 50.8764 74.8417 45.4142 74.8417 40.1598V39.8422C74.8417 34.6975 76.1067 29.1937 78.5963 23.4714L78.5903 23.4562Z" fill="black"/>
<path id="Vector_4" d="M1.41387 23.4721C3.90346 29.1895 5.16845 34.6986 5.16845 39.8429V40.1605C5.16845 45.4144 3.9287 50.8767 1.47941 56.3966C0.380768 58.8752 -0.118183 61.6349 0.0481171 64.3687C0.562163 73.127 7.82925 79.9903 16.5736 79.9903H18.0855C20.2122 79.9903 21.956 78.1886 21.956 75.9912C21.956 73.7939 20.2122 71.9922 18.0855 71.9922H16.5736C11.9825 71.9922 8.03142 68.3524 7.77442 63.8744C7.68371 62.4217 7.94073 61.021 8.5102 59.7295C11.4281 53.1582 12.9099 46.5712 12.9099 40.1462V39.8286C12.9099 33.5489 11.413 26.9358 8.46995 20.1826C7.91559 18.9173 7.68376 17.5582 7.75936 16.142C8.01639 11.6483 11.9674 7.99808 16.5686 7.99808H18.0654C20.1921 7.99808 21.9359 6.19638 21.9359 3.99904C21.9359 1.8017 20.1921 0 18.0654 0H16.5686C7.79459 0 0.532088 6.87862 0.0289306 15.6789C-0.127293 18.3449 0.351469 21.037 1.40978 23.4634L1.41387 23.4721Z" fill="black"/>
</g>
</svg>
