<svg width="24" height="24" viewBox="0 0 24 24" fill="none" xmlns="http://www.w3.org/2000/svg">
<g id="User Interface / Arrow Left">
<rect id="Rectangle 588" x="12" y="19" width="2" height="2" transform="rotate(180 12 19)" fill="#374151"/>
<rect id="Rectangle 589" x="10" y="17" width="2" height="2" transform="rotate(180 10 17)" fill="#374151"/>
<rect id="Rectangle 590" x="8" y="15" width="2" height="2" transform="rotate(180 8 15)" fill="#374151"/>
<rect id="Rectangle 591" x="6" y="13" width="2" height="2" transform="rotate(180 6 13)" fill="#374151"/>
<rect id="Rectangle 595" x="8" y="13" width="2" height="2" transform="rotate(180 8 13)" fill="#374151"/>
<rect id="Rectangle 596" x="10" y="13" width="2" height="2" transform="rotate(180 10 13)" fill="#374151"/>
<rect id="Rectangle 597" x="12" y="13" width="2" height="2" transform="rotate(180 12 13)" fill="#374151"/>
<rect id="Rectangle 598" x="14" y="13" width="2" height="2" transform="rotate(180 14 13)" fill="#374151"/>
<rect id="Rectangle 599" x="16" y="13" width="2" height="2" transform="rotate(180 16 13)" fill="#374151"/>
<rect id="Rectangle 600" x="18" y="13" width="2" height="2" transform="rotate(180 18 13)" fill="#374151"/>
<rect id="Rectangle 601" x="20" y="13" width="2" height="2" transform="rotate(180 20 13)" fill="#374151"/>
<rect id="Rectangle 592" x="8" y="11" width="2" height="2" transform="rotate(180 8 11)" fill="#374151"/>
<rect id="Rectangle 593" x="10" y="9" width="2" height="2" transform="rotate(180 10 9)" fill="#374151"/>
<rect id="Rectangle 594" x="12" y="7" width="2" height="2" transform="rotate(180 12 7)" fill="#374151"/>
</g>
</svg>
