<svg width="12" height="12" viewBox="0 0 12 12" fill="none" xmlns="http://www.w3.org/2000/svg">
<path id="Vector" d="M0.146362 5.64048C0.146423 5.64042 0.146362 5.64054 0.146362 5.64048L5.64648 0.140357C5.84509 -0.0514761 6.16162 -0.0459829 6.35345 0.152625C6.54059 0.346412 6.54059 0.653602 6.35345 0.847328L1.70697 5.49387H11.5C11.7761 5.49387 12 5.71775 12 5.99387C12 6.27 11.7761 6.49387 11.5 6.49387H1.70697L6.35352 11.1404C6.55212 11.3322 6.55762 11.6487 6.36578 11.8473C6.17395 12.046 5.85736 12.0515 5.65875 11.8597C5.6546 11.8556 5.65051 11.8515 5.64648 11.8473L0.146484 6.34733C-0.0487671 6.1522 -0.0487671 5.83573 0.146362 5.64048Z" fill="#777777"/>
</svg>
