<svg width="25" height="24" viewBox="0 0 25 24" fill="none" xmlns="http://www.w3.org/2000/svg">
<g id="Ecommerce / Barcode">
<path id="Shape" fill-rule="evenodd" clip-rule="evenodd" d="M6.7 4H6.66146H6.66142C6.13429 3.99998 5.67954 3.99997 5.30497 4.03057C4.90963 4.06287 4.51641 4.13419 4.13803 4.32698C3.57354 4.6146 3.1146 5.07354 2.82698 5.63803C2.63419 6.01641 2.56287 6.40963 2.53057 6.80497C2.49997 7.17954 2.49998 7.63429 2.5 8.16142V8.16146V8.2V9C2.5 9.55229 2.94772 10 3.5 10C4.05229 10 4.5 9.55229 4.5 9V8.2C4.5 7.62345 4.50078 7.25118 4.52393 6.96784C4.54613 6.69618 4.5838 6.59546 4.609 6.54601C4.70487 6.35785 4.85785 6.20487 5.04601 6.109C5.09546 6.0838 5.19618 6.04613 5.46784 6.02393C5.75118 6.00078 6.12345 6 6.7 6H7.5C8.05229 6 8.5 5.55229 8.5 5C8.5 4.44772 8.05229 4 7.5 4H6.7ZM18.3 20H18.3385C18.8657 20 19.3205 20 19.695 19.9694C20.0904 19.9371 20.4836 19.8658 20.862 19.673C21.4265 19.3854 21.8854 18.9265 22.173 18.362C22.3658 17.9836 22.4371 17.5904 22.4694 17.195C22.5 16.8205 22.5 16.3657 22.5 15.8386V15.8386V15.8386V15.8385L22.5 15.8V15C22.5 14.4477 22.0523 14 21.5 14C20.9477 14 20.5 14.4477 20.5 15V15.8C20.5 16.3766 20.4992 16.7488 20.4761 17.0322C20.4539 17.3038 20.4162 17.4045 20.391 17.454C20.2951 17.6422 20.1422 17.7951 19.954 17.891C19.9045 17.9162 19.8038 17.9539 19.5322 17.9761C19.2488 17.9992 18.8766 18 18.3 18H17.5C16.9477 18 16.5 18.4477 16.5 19C16.5 19.5523 16.9477 20 17.5 20H18.3ZM2.5 15.8385L2.5 15.8L2.5 15C2.5 14.4477 2.94772 14 3.5 14C4.05229 14 4.5 14.4477 4.5 15V15.8C4.5 16.3766 4.50078 16.7488 4.52393 17.0322C4.54613 17.3038 4.5838 17.4045 4.609 17.454C4.70487 17.6422 4.85785 17.7951 5.04601 17.891C5.09546 17.9162 5.19618 17.9539 5.46784 17.9761C5.75118 17.9992 6.12345 18 6.7 18H7.5C8.05229 18 8.5 18.4477 8.5 19C8.5 19.5523 8.05229 20 7.5 20H6.7H6.66146C6.13431 20 5.67955 20 5.30497 19.9694C4.90963 19.9371 4.51641 19.8658 4.13803 19.673C3.57354 19.3854 3.1146 18.9265 2.82698 18.362C2.63419 17.9836 2.56287 17.5904 2.53057 17.195C2.49997 16.8205 2.49998 16.3657 2.5 15.8386V15.8385ZM22.5 8.2V8.16146C22.5 7.63431 22.5 7.17955 22.4694 6.80497C22.4371 6.40963 22.3658 6.01641 22.173 5.63803C21.8854 5.07355 21.4265 4.6146 20.862 4.32698C20.4836 4.13419 20.0904 4.06287 19.695 4.03057C19.3205 3.99997 18.8657 3.99998 18.3386 4H18.3385H18.3H17.5C16.9477 4 16.5 4.44772 16.5 5C16.5 5.55229 16.9477 6 17.5 6H18.3C18.8766 6 19.2488 6.00078 19.5322 6.02393C19.8038 6.04613 19.9045 6.0838 19.954 6.109C20.1422 6.20487 20.2951 6.35785 20.391 6.54601C20.4162 6.59546 20.4539 6.69618 20.4761 6.96784C20.4992 7.25118 20.5 7.62345 20.5 8.2V9C20.5 9.55229 20.9477 10 21.5 10C22.0523 10 22.5 9.55229 22.5 9V8.2Z" fill="white"/>
<path id="Shape_2" fill-rule="evenodd" clip-rule="evenodd" d="M7.5 9C7.5 8.44772 7.94772 8 8.5 8C9.05228 8 9.5 8.44772 9.5 9V15C9.5 15.5523 9.05228 16 8.5 16C7.94772 16 7.5 15.5523 7.5 15V9ZM11.5 9C11.5 8.44772 11.9477 8 12.5 8C13.0523 8 13.5 8.44772 13.5 9V13C13.5 13.5523 13.0523 14 12.5 14C11.9477 14 11.5 13.5523 11.5 13V9ZM16.5 8C15.9477 8 15.5 8.44772 15.5 9V15C15.5 15.5523 15.9477 16 16.5 16C17.0523 16 17.5 15.5523 17.5 15V9C17.5 8.44772 17.0523 8 16.5 8Z" fill="white"/>
</g>
</svg>
