<svg width="86" height="86" viewBox="0 0 86 86" fill="none" xmlns="http://www.w3.org/2000/svg">
<g clip-path="url(#clip0_2262_13020)">
<path d="M73.3807 12.593C65.274 4.46004 54.4649 0 43 0C31.5088 0 20.6998 4.46004 12.593 12.593C4.46004 20.6998 0 31.5088 0 43C0 54.4912 4.46004 65.274 12.593 73.407C20.6998 81.5137 31.5088 86 43 86C54.4912 86 65.274 81.54 73.407 73.407C81.5137 65.3002 86 54.4912 86 43C85.9738 31.5088 81.5137 20.6998 73.3807 12.593Z" fill="#5CB288"/>
<path d="M37.409 50.0866L29.063 41.8063C27.456 40.212 24.8122 40.212 23.2052 41.8063C21.5983 43.4007 21.5983 46.0236 23.2052 47.618L34.4801 58.8041C36.0871 60.3984 38.7309 60.3984 40.3379 58.8041L63.7948 35.5318C65.4017 33.9375 65.4017 31.3145 63.7948 29.7202C62.1878 28.1258 59.544 28.1258 57.937 29.7202L37.409 50.0866Z" fill="white"/>
</g>
<defs>
<clipPath id="clip0_2262_13020">
<rect width="86" height="86" fill="white"/>
</clipPath>
</defs>
</svg>
