<svg xmlns="http://www.w3.org/2000/svg" width="13" height="8" viewBox="0 0 13 8" fill="none">
  <path d="M6.90039 7.43628C7.07607 7.43628 7.23067 7.37303 7.36419 7.23952L12.8103 1.66695C12.9368 1.54749 13 1.39289 13 1.21018C13 0.844766 12.7259 0.563678 12.3605 0.563678C12.1778 0.563678 12.0232 0.640977 11.9038 0.753412L6.90039 5.86921L1.89702 0.753412C1.77756 0.640977 1.61594 0.563678 1.44026 0.563678C1.07484 0.563678 0.800781 0.844766 0.800781 1.21018C0.800781 1.39289 0.864026 1.54749 0.983488 1.66695L6.4366 7.23952C6.56309 7.37303 6.72471 7.43628 6.90039 7.43628Z" fill="white"/>
</svg>