<svg xmlns="http://www.w3.org/2000/svg" width="13" height="8" viewBox="0 0 13 8" fill="none">
  <path d="M6.90039 0.563721C7.07607 0.563721 7.23067 0.626966 7.36419 0.760482L12.8103 6.33305C12.9368 6.45251 13 6.60711 13 6.78982C13 7.15523 12.7259 7.43632 12.3605 7.43632C12.1778 7.43632 12.0232 7.35902 11.9038 7.24659L6.90039 2.13079L1.89702 7.24659C1.77756 7.35902 1.61594 7.43632 1.44026 7.43632C1.07484 7.43632 0.800781 7.15523 0.800781 6.78982C0.800781 6.60711 0.864026 6.45251 0.983488 6.33305L6.4366 0.760482C6.56309 0.626966 6.72471 0.563721 6.90039 0.563721Z" fill="white"/>
</svg>