<svg width="16" height="16" viewBox="0 0 16 16" fill="none" xmlns="http://www.w3.org/2000/svg">
<g id="usdc-svgrepo-com 1" clip-path="url(#clip0_1335_11200)">
<path id="Vector" d="M8 0C12.4185 0 16 3.5815 16 8C16 12.4185 12.4185 16 8 16C3.5815 16 0 12.4185 0 8C0 3.5815 3.5815 0 8 0ZM9.676 2.78C9.554 2.72 9.432 2.78 9.402 2.9015C9.3715 2.932 9.3715 2.9625 9.3715 3.023V3.448L9.3765 3.5C9.4026 3.60286 9.46583 3.69244 9.554 3.7515C11.931 4.6015 13.15 7.2415 12.266 9.578C11.809 10.853 10.8035 11.8235 9.554 12.279C9.432 12.3395 9.3715 12.4305 9.3715 12.5825V13.0075L9.374 13.0515C9.37875 13.0995 9.39882 13.1447 9.43123 13.1805C9.46364 13.2162 9.50668 13.2406 9.554 13.25C9.5845 13.25 9.6455 13.25 9.676 13.22C10.3618 13.0058 10.9984 12.6581 11.5493 12.1969C12.1001 11.7357 12.5543 11.1701 12.8857 10.5326C13.217 9.89511 13.419 9.19839 13.48 8.48254C13.541 7.76668 13.4598 7.04583 13.241 6.3615C12.693 4.6315 11.352 3.326 9.676 2.78ZM6.446 2.75C6.4155 2.75 6.3545 2.75 6.324 2.78C5.63821 2.99416 5.00157 3.34186 4.45071 3.80309C3.89986 4.26431 3.44568 4.82994 3.11432 5.46741C2.78297 6.10489 2.58099 6.80161 2.52 7.51746C2.45902 8.23332 2.54025 8.95417 2.759 9.6385C3.307 11.3385 4.6175 12.6435 6.324 13.1895C6.446 13.25 6.568 13.1895 6.598 13.068C6.6285 13.038 6.6285 13.007 6.6285 12.9465V12.5215L6.6235 12.4815C6.6025 12.397 6.524 12.3005 6.446 12.2485C4.069 11.3985 2.85 8.7585 3.734 6.422C4.191 5.147 5.1965 4.1765 6.446 3.721C6.568 3.6605 6.6285 3.5695 6.6285 3.4175V2.9925L6.626 2.9485C6.62124 2.90049 6.60118 2.85527 6.56877 2.81953C6.53636 2.78379 6.49332 2.75941 6.446 2.75ZM8.2135 4.328H7.756L7.712 4.332C7.612 4.352 7.539 4.438 7.512 4.571V5.269L7.4085 5.285C6.5545 5.437 6.0195 6.0265 6.0195 6.756C6.0195 7.757 6.6285 8.1515 7.9085 8.3035C8.762 8.455 9.036 8.6375 9.036 9.123C9.036 9.608 8.6095 9.942 8.0305 9.942C7.238 9.942 6.964 9.6085 6.8725 9.153C6.8425 9.032 6.7505 8.971 6.659 8.971H6.141L6.1015 8.9745C6.0522 8.98247 6.00745 9.00803 5.97555 9.04646C5.94365 9.08488 5.92676 9.13357 5.928 9.1835V9.2135L5.9445 9.3035C6.0895 10.0155 6.5775 10.525 7.543 10.6705V11.399L7.547 11.443C7.567 11.542 7.6535 11.615 7.787 11.6415H8.244L8.288 11.6375C8.388 11.6175 8.461 11.5315 8.488 11.399V10.67L8.5915 10.65C9.448 10.469 10.0115 9.8495 10.0115 9.0615C10.0115 7.9995 9.3715 7.6355 8.0915 7.4835C7.177 7.362 6.9945 7.1195 6.9945 6.6945C6.9945 6.2695 7.2995 5.9965 7.9085 5.9965C8.457 5.9965 8.762 6.1785 8.914 6.634C8.92984 6.67805 8.95879 6.71618 8.99697 6.74327C9.03514 6.77035 9.0807 6.78509 9.1275 6.7855H9.615L9.6545 6.7825C9.70398 6.77463 9.74892 6.74904 9.78093 6.7105C9.81294 6.67195 9.82985 6.62309 9.8285 6.573V6.543L9.81 6.4565C9.73493 6.14571 9.56376 5.8665 9.32085 5.6586C9.07794 5.4507 8.77566 5.32469 8.457 5.2985V4.571L8.453 4.527C8.433 4.4275 8.347 4.3545 8.2135 4.328Z" fill="#2F6CDF"/>
</g>
<defs>
<clipPath id="clip0_1335_11200">
<rect width="16" height="16" fill="white"/>
</clipPath>
</defs>
</svg>
