<svg width="20" height="20" viewBox="0 0 20 20" fill="none" xmlns="http://www.w3.org/2000/svg">
<g id="Group 14079">
<path id="Union" fill-rule="evenodd" clip-rule="evenodd" d="M12 0H4V2H2V4H0V12H2V14H4V16H12V14H14V12H16V4H14V2H12V0ZM12 2V4H14V12H12V14H4V12H2V4H4V2H12Z" fill="#374151"/>
<g id="Group 14078">
<rect id="Rectangle 1065" x="5" y="4.42847" width="5.71429" height="1.42857" fill="#374151"/>
<rect id="Rectangle 1068" x="5" y="10.1428" width="5.71429" height="1.42857" fill="#374151"/>
<rect id="Rectangle 1066" x="5" y="4.42847" width="1.42857" height="4.28571" fill="#374151"/>
<rect id="Rectangle 1069" x="9.28571" y="7.28564" width="1.42857" height="4.28571" fill="#374151"/>
<rect id="Rectangle 1067" x="5" y="7.28564" width="5.71429" height="1.42857" fill="#374151"/>
<rect id="Rectangle 1070" x="7.14282" y="3" width="1.42857" height="2.85714" fill="#374151"/>
<rect id="Rectangle 1071" x="7.14282" y="10.1428" width="1.42857" height="2.85714" fill="#374151"/>
</g>
<path id="Vector 49" d="M13 13L19 19" stroke="#374151" stroke-width="2.75"/>
</g>
</svg>
