<svg width="86" height="86" viewBox="0 0 86 86" fill="none" xmlns="http://www.w3.org/2000/svg">
<g clip-path="url(#clip0_2262_13021)">
<path d="M73.0266 12.946L73.0277 12.9472C73.6467 13.5641 74.2441 14.1969 74.8196 14.8445L75.1933 14.5124C75.8978 15.3051 76.5699 16.12 77.209 16.9553L76.8119 17.2591C77.8742 18.6476 78.8442 20.0931 79.7191 21.5881L80.1506 21.3356C80.6847 22.2483 81.1838 23.1793 81.6472 24.1268L81.1981 24.3465C81.9624 25.9093 82.6286 27.5177 83.1936 29.1638L83.6665 29.0014C84.0089 29.9989 84.3146 31.01 84.5829 32.0331L84.0992 32.1599C84.5386 33.8353 84.8767 35.5433 85.1105 37.2763L85.6061 37.2094C85.7467 38.2517 85.8501 39.3029 85.9156 40.3614L85.4165 40.3923C85.4701 41.2572 85.498 42.1272 85.5 43.0011C85.5 43.8744 85.4737 44.7437 85.4217 45.608L85.9208 45.638C85.8571 46.6963 85.7551 47.7474 85.6155 48.7895L85.12 48.7232C84.888 50.4557 84.551 52.1633 84.1123 53.8383L84.596 53.965C84.3281 54.9878 84.0227 55.9987 83.6805 56.9959L83.2076 56.8337C82.6429 58.4793 81.977 60.0873 81.2131 61.6498L81.6622 61.8694C81.1991 62.8168 80.7003 63.7476 80.1667 64.6602L79.7351 64.4078C78.8608 65.9031 77.8918 67.3489 76.8313 68.7376L77.2286 69.0411C76.5903 69.8769 75.9193 70.6923 75.2162 71.4855L74.8421 71.1539C74.2674 71.8023 73.671 72.4358 73.0534 73.0534C72.4354 73.6714 71.8019 74.268 71.1539 74.8426L71.4857 75.2167C70.6922 75.9204 69.8771 76.5918 69.0419 77.2302L68.7382 76.833C67.349 77.895 65.9036 78.8646 64.4095 79.739L64.662 80.1705C63.7493 80.7046 62.8186 81.2036 61.8715 81.6669L61.6518 81.2178C60.089 81.9822 58.4811 82.648 56.8356 83.2122L56.9977 83.6852C56.0003 84.0272 54.9893 84.3323 53.9663 84.5998L53.8398 84.1161C52.1647 84.5541 50.457 84.8902 48.7239 85.1215L48.79 85.6171C47.7479 85.7562 46.6968 85.8578 45.6382 85.9212L45.6083 85.4221C44.7437 85.4739 43.8739 85.5 43 85.5C42.1263 85.5 41.2567 85.4738 40.392 85.4217L40.362 85.9208C39.3037 85.8571 38.2527 85.7551 37.2105 85.6155L37.2768 85.12C35.5443 84.888 33.8367 84.551 32.1617 84.1123L32.035 84.596C31.0122 84.3281 30.0013 84.0227 29.0041 83.6805L29.1663 83.2076C27.5207 82.6429 25.9127 81.977 24.3502 81.2131L24.1306 81.6622C23.1832 81.1991 22.2524 80.7003 21.3398 80.1667L21.5922 79.7351C20.0969 78.8608 18.6511 77.8918 17.2624 76.8313L16.9589 77.2286C16.1231 76.5903 15.3077 75.9193 14.5145 75.2162L14.8461 74.8421C14.1977 74.2674 13.5642 73.671 12.9466 73.0534C12.3286 72.4354 11.732 71.8019 11.1574 71.1539L10.7833 71.4857C10.0796 70.6922 9.40821 69.8771 8.76978 69.0419L9.16702 68.7382C8.10505 67.3489 7.13541 65.9036 6.26104 64.4095L5.82951 64.662C5.29538 63.7493 4.79635 62.8186 4.3331 61.8715L4.78225 61.6518C4.01783 60.089 3.35198 58.4811 2.78777 56.8356L2.3148 56.9977C1.97282 56.0003 1.66773 54.9893 1.40021 53.9663L1.88394 53.8398C1.44592 52.1647 1.10976 50.457 0.878493 48.7239L0.382886 48.79C0.24382 47.7479 0.142249 46.6968 0.0788071 45.6382L0.577911 45.6083C0.526091 44.7437 0.5 43.8739 0.5 43C0.5 42.1261 0.526086 41.2563 0.577897 40.3915L0.0787914 40.3616C0.142202 39.3031 0.243713 38.2519 0.382689 37.2095L0.878303 37.2756C1.10937 35.5426 1.4452 33.8345 1.88277 32.1591L1.39899 32.0327C1.66622 31.0095 1.97097 29.9983 2.31256 29.0007L2.7856 29.1627C3.34929 27.5166 4.01452 25.9082 4.77823 24.3453L4.329 24.1258C4.792 23.1783 5.29077 22.2473 5.82465 21.3346L6.25624 21.5871C7.13063 20.0922 8.10037 18.6468 9.1625 17.2585L8.76538 16.9547C9.40434 16.1195 10.0763 15.3047 10.7807 14.5121L11.1544 14.8442C11.7299 14.1967 12.3272 13.564 12.946 12.9472L12.9472 12.946C13.564 12.3272 14.1967 11.7299 14.8442 11.1545L14.5121 10.7807C15.3047 10.0763 16.1195 9.40435 16.9547 8.76538L17.2585 9.1625C18.6468 8.10037 20.0922 7.13063 21.5871 6.25624L21.3346 5.82466C22.2473 5.29078 23.1783 4.792 24.1258 4.329L24.3453 4.77823C25.9082 4.01452 27.5166 3.34929 29.1627 2.7856L29.0007 2.31256C29.9983 1.97097 31.0095 1.66622 32.0327 1.39899L32.1591 1.88277C33.8345 1.4452 35.5426 1.10937 37.2756 0.878303L37.2095 0.382689C38.2519 0.243713 39.3031 0.142202 40.3616 0.0787913L40.3915 0.577897C41.2563 0.526086 42.1261 0.5 43 0.5C43.873 0.5 44.7421 0.526156 45.6064 0.578106L45.6364 0.0790069C46.6939 0.14257 47.7443 0.24431 48.786 0.383591L48.7197 0.879181C50.4508 1.11064 52.1575 1.44697 53.8318 1.88516L53.9584 1.40145C54.9806 1.66894 55.9909 1.97396 56.9877 2.31584L56.8255 2.7888C58.4698 3.35276 60.0767 4.01822 61.6384 4.78212L61.8581 4.33297C62.8046 4.79596 63.7347 5.29469 64.6466 5.82849L64.3941 6.26C65.8874 7.13411 67.3315 8.10344 68.7188 9.16505L69.0226 8.76798C69.8571 9.40656 70.6712 10.0781 71.4632 10.782L71.131 11.1557C71.778 11.7308 72.4102 12.3276 73.0266 12.946Z" stroke="#D1D5DB" stroke-dasharray="5 3"/>
</g>
<defs>
<clipPath id="clip0_2262_13021">
<rect width="86" height="86" fill="white"/>
</clipPath>
</defs>
</svg>
