<svg width="18" height="20" viewBox="0 0 18 20" fill="none" xmlns="http://www.w3.org/2000/svg">
<g id="Group 14097">
<rect id="Rectangle 3187" y="6" width="2" height="2" fill="#374151"/>
<rect id="Rectangle 3189" y="10" width="2" height="2" fill="#374151"/>
<rect id="Rectangle 3188" y="8" width="2" height="2" fill="#374151"/>
<rect id="Rectangle 3190" y="12" width="2" height="2" fill="#374151"/>
<rect id="Rectangle 3191" y="14" width="2" height="2" fill="#374151"/>
<rect id="Rectangle 3187_2" x="16" y="6" width="2" height="2" fill="#374151"/>
<rect id="Rectangle 3192" x="10" y="17" width="2" height="2" fill="#374151"/>
<rect id="Rectangle 3204" width="2" height="2" transform="matrix(1 0 0 -1 10 3)" fill="#374151"/>
<rect id="Rectangle 3198" x="10" y="9" width="2" height="2" fill="#374151"/>
<rect id="Rectangle 3195" width="2" height="2" transform="matrix(1 0 0 -1 2 17)" fill="#374151"/>
<rect id="Rectangle 3205" x="2" y="3" width="2" height="2" fill="#374151"/>
<rect id="Rectangle 3199" width="2" height="2" transform="matrix(1 0 0 -1 2 9)" fill="#374151"/>
<rect id="Rectangle 3193" x="12" y="16" width="2" height="2" fill="#374151"/>
<rect id="Rectangle 3206" width="2" height="2" transform="matrix(1 0 0 -1 12 4)" fill="#374151"/>
<rect id="Rectangle 3200" x="12" y="8" width="2" height="2" fill="#374151"/>
<rect id="Rectangle 3196" width="2" height="2" transform="matrix(1 0 0 -1 4 18)" fill="#374151"/>
<rect id="Rectangle 3207" x="4" y="2" width="2" height="2" fill="#374151"/>
<rect id="Rectangle 3201" width="2" height="2" transform="matrix(1 0 0 -1 4 10)" fill="#374151"/>
<rect id="Rectangle 3194" x="14" y="15" width="2" height="2" fill="#374151"/>
<rect id="Rectangle 3208" width="2" height="2" transform="matrix(1 0 0 -1 14 5)" fill="#374151"/>
<rect id="Rectangle 3202" x="14" y="7" width="2" height="2" fill="#374151"/>
<rect id="Rectangle 3197" width="2" height="2" transform="matrix(1 0 0 -1 6 19)" fill="#374151"/>
<rect id="Rectangle 3209" x="6" y="1" width="2" height="2" fill="#374151"/>
<rect id="Rectangle 3203" width="2" height="2" transform="matrix(1 0 0 -1 6 11)" fill="#374151"/>
<rect id="Rectangle 3189_2" x="16" y="10" width="2" height="2" fill="#374151"/>
<rect id="Rectangle 3188_2" x="16" y="8" width="2" height="2" fill="#374151"/>
<rect id="Rectangle 3190_2" x="16" y="12" width="2" height="2" fill="#374151"/>
<rect id="Rectangle 3191_2" x="16" y="14" width="2" height="2" fill="#374151"/>
<rect id="Rectangle 3187_3" x="16" y="6" width="2" height="2" fill="#374151"/>
<rect id="Rectangle 3192_2" x="10" y="17" width="2" height="2" fill="#374151"/>
<rect id="Rectangle 3204_2" width="2" height="2" transform="matrix(1 0 0 -1 10 3)" fill="#374151"/>
<rect id="Rectangle 3198_2" x="10" y="9" width="2" height="2" fill="#374151"/>
<rect id="Rectangle 3195_2" width="2" height="2" transform="matrix(1 0 0 -1 2 17)" fill="#374151"/>
<rect id="Rectangle 3205_2" x="2" y="3" width="2" height="2" fill="#374151"/>
<rect id="Rectangle 3199_2" width="2" height="2" transform="matrix(1 0 0 -1 2 9)" fill="#374151"/>
<rect id="Rectangle 3193_2" x="12" y="16" width="2" height="2" fill="#374151"/>
<rect id="Rectangle 3206_2" width="2" height="2" transform="matrix(1 0 0 -1 12 4)" fill="#374151"/>
<rect id="Rectangle 3200_2" x="12" y="8" width="2" height="2" fill="#374151"/>
<rect id="Rectangle 3196_2" width="2" height="2" transform="matrix(1 0 0 -1 4 18)" fill="#374151"/>
<rect id="Rectangle 3207_2" x="4" y="2" width="2" height="2" fill="#374151"/>
<rect id="Rectangle 3201_2" width="2" height="2" transform="matrix(1 0 0 -1 4 10)" fill="#374151"/>
<rect id="Rectangle 3194_2" x="14" y="15" width="2" height="2" fill="#374151"/>
<rect id="Rectangle 3208_2" width="2" height="2" transform="matrix(1 0 0 -1 14 5)" fill="#374151"/>
<rect id="Rectangle 3202_2" x="14" y="7" width="2" height="2" fill="#374151"/>
<g id="Group 14096">
<rect id="Rectangle 3213" x="12" y="3" width="2" height="2" fill="#374151"/>
<rect id="Rectangle 3217" x="4" y="7" width="2" height="2" fill="#374151"/>
<rect id="Rectangle 3214" x="6" y="6" width="2" height="2" fill="#374151"/>
<rect id="Rectangle 3215" x="8" y="5" width="2" height="2" fill="#374151"/>
<rect id="Rectangle 3216" x="10" y="4" width="2" height="2" fill="#374151"/>
</g>
<rect id="Rectangle 3197_2" width="2" height="2" transform="matrix(1 0 0 -1 6 19)" fill="#374151"/>
<rect id="Rectangle 3209_2" x="6" y="1" width="2" height="2" fill="#374151"/>
<rect id="Rectangle 3210" x="8" width="2" height="2" fill="#374151"/>
<rect id="Rectangle 3211" y="4" width="2" height="2" fill="#374151"/>
<rect id="Rectangle 3212" x="16" y="4" width="2" height="2" fill="#374151"/>
<rect id="Rectangle 3203_2" width="2" height="2" transform="matrix(1 0 0 -1 6 11)" fill="#374151"/>
<rect id="Rectangle 3189_3" x="16" y="10" width="2" height="2" fill="#374151"/>
<rect id="Rectangle 3188_3" x="16" y="8" width="2" height="2" fill="#374151"/>
<rect id="Rectangle 3190_3" x="16" y="12" width="2" height="2" fill="#374151"/>
<rect id="Rectangle 3191_3" x="16" y="14" width="2" height="2" fill="#374151"/>
<rect id="Rectangle 3192_3" x="8" y="10" width="2" height="2" fill="#374151"/>
<rect id="Rectangle 3193_3" x="8" y="14" width="2" height="2" fill="#374151"/>
<rect id="Rectangle 3194_3" x="8" y="12" width="2" height="2" fill="#374151"/>
<rect id="Rectangle 3195_3" x="8" y="16" width="2" height="2" fill="#374151"/>
<rect id="Rectangle 3196_3" x="8" y="18" width="2" height="2" fill="#374151"/>
</g>
</svg>
