<svg width="24" height="24" viewBox="0 0 24 24" fill="none" xmlns="http://www.w3.org/2000/svg">
<g id="User Interface / Remove">
<path id="Shape" fill-rule="evenodd" clip-rule="evenodd" d="M7.38249 6.17975C7.04624 5.9183 6.56004 5.94207 6.25105 6.25105C5.91632 6.58579 5.91632 7.1285 6.25105 7.46323L10.7878 12L6.25105 16.5368L6.17975 16.6175C5.9183 16.9538 5.94207 17.44 6.25105 17.7489C6.58579 18.0837 7.1285 18.0837 7.46323 17.7489L12 13.2122L16.5368 17.7489L16.6175 17.8203C16.9538 18.0817 17.44 18.0579 17.7489 17.7489C18.0837 17.4142 18.0837 16.8715 17.7489 16.5368L13.2122 12L17.7489 7.46323L17.8203 7.38249C18.0817 7.04624 18.0579 6.56004 17.7489 6.25105C17.4142 5.91632 16.8715 5.91632 16.5368 6.25105L12 10.7878L7.46323 6.25105L7.38249 6.17975Z" fill="#D1D5DB"/>
</g>
</svg>
