<svg width="24" height="24" viewBox="0 0 24 24" fill="none" xmlns="http://www.w3.org/2000/svg">
<g id="User Interface / More Horizontal">
<path id="Shape" fill-rule="evenodd" clip-rule="evenodd" d="M6.41422 13.4142C7.19527 12.6332 7.19527 11.3668 6.41422 10.5858C5.63317 9.80474 4.36684 9.80474 3.58579 10.5858C2.80474 11.3668 2.80474 12.6332 3.58579 13.4142C4.36684 14.1953 5.63317 14.1953 6.41422 13.4142ZM13.4142 10.5858C14.1953 11.3668 14.1953 12.6332 13.4142 13.4142C12.6332 14.1953 11.3668 14.1953 10.5858 13.4142C9.80473 12.6332 9.80473 11.3668 10.5858 10.5858C11.3668 9.80474 12.6332 9.80474 13.4142 10.5858ZM20.4142 10.5858C21.1953 11.3668 21.1953 12.6332 20.4142 13.4142C19.6332 14.1953 18.3668 14.1953 17.5858 13.4142C16.8047 12.6332 16.8047 11.3668 17.5858 10.5858C18.3668 9.80474 19.6332 9.80474 20.4142 10.5858Z" fill="#2F6CDF"/>
</g>
</svg>
