<svg xmlns="http://www.w3.org/2000/svg" width="12" height="13" viewBox="0 0 12 13" fill="none">
  <path fill-rule="evenodd" clip-rule="evenodd" d="M5.62533 0.166504C5.21067 0.166504 4.87467 0.502504 4.87467 0.916504L4.78467 1.5465C4.76621 1.67538 4.71453 1.79723 4.6347 1.90007C4.55487 2.00291 4.44965 2.0832 4.32938 2.13304C4.20911 2.18288 4.07794 2.20056 3.94877 2.18434C3.8196 2.16811 3.69687 2.11854 3.59267 2.0405L3.08333 1.6585C3.01369 1.58886 2.93101 1.53361 2.84001 1.49592C2.74902 1.45823 2.65149 1.43883 2.553 1.43883C2.45451 1.43883 2.35698 1.45823 2.26599 1.49592C2.17499 1.53361 2.09231 1.58886 2.02267 1.6585L1.492 2.18917C1.19867 2.4825 1.19867 2.9565 1.492 3.24917L1.874 3.75917C1.95203 3.86333 2.00161 3.986 2.01787 4.11513C2.03413 4.24425 2.01651 4.37539 1.96674 4.49564C1.91697 4.61589 1.83677 4.72113 1.73401 4.80099C1.63125 4.88086 1.50948 4.93262 1.38067 4.95117L0.75 5.04184C0.336 5.04184 0 5.37717 0 5.79117V6.54184C0 6.95517 0.336 7.29117 0.75 7.29117L1.38 7.38184C1.50887 7.40029 1.63072 7.45198 1.73356 7.5318C1.8364 7.61163 1.91669 7.71685 1.96654 7.83712C2.01638 7.95739 2.03406 8.08856 2.01783 8.21774C2.00161 8.34691 1.95204 8.46963 1.874 8.57384L1.492 9.08317C1.19867 9.3765 1.19867 9.85117 1.492 10.1438L2.02267 10.6745C2.316 10.9678 2.79 10.9678 3.08267 10.6745L3.59267 10.2925C3.69683 10.2145 3.8195 10.1649 3.94862 10.1486C4.07775 10.1324 4.20888 10.15 4.32914 10.1998C4.44939 10.2495 4.55462 10.3297 4.63449 10.4325C4.71436 10.5353 4.76611 10.657 4.78467 10.7858L4.87533 11.4165C4.87533 11.8305 5.21067 12.1665 5.62467 12.1665H6.37533C6.78867 12.1665 7.12467 11.8305 7.12467 11.4165L7.21533 10.7865C7.23379 10.6576 7.28547 10.5358 7.3653 10.4329C7.44513 10.3301 7.55035 10.2498 7.67062 10.2C7.79089 10.1501 7.92206 10.1324 8.05123 10.1487C8.1804 10.1649 8.30313 10.2145 8.40733 10.2925L8.91667 10.6745C9.21 10.9678 9.68467 10.9678 9.97733 10.6745L10.508 10.1438C10.8007 9.8505 10.8007 9.3765 10.508 9.08384L10.126 8.57384C10.048 8.46968 9.99839 8.347 9.98213 8.21788C9.96587 8.08875 9.98349 7.95762 10.0333 7.83737C10.083 7.71711 10.1632 7.61188 10.266 7.53201C10.3687 7.45215 10.4905 7.40039 10.6193 7.38184L11.25 7.29117C11.664 7.29117 12 6.95584 12 6.54184V5.79117C12 5.37784 11.664 5.04184 11.25 5.04184L10.62 4.95117C10.4911 4.93272 10.3693 4.88103 10.2664 4.8012C10.1636 4.72138 10.0833 4.61615 10.0335 4.49589C9.98362 4.37562 9.96594 4.24445 9.98217 4.11527C9.99839 3.9861 10.048 3.86338 10.126 3.75917L10.508 3.24984C10.8007 2.9565 10.8007 2.48184 10.508 2.18917L9.97733 1.6585C9.83671 1.51805 9.64608 1.43916 9.44733 1.43916C9.24858 1.43916 9.05796 1.51805 8.91733 1.6585L8.40733 2.0405C8.30317 2.11853 8.1805 2.16811 8.05138 2.18437C7.92225 2.20063 7.79112 2.18301 7.67086 2.13324C7.55061 2.08347 7.44538 2.00327 7.36551 1.90051C7.28564 1.79776 7.23389 1.67599 7.21533 1.54717L7.12467 0.916504C7.12467 0.502504 6.78933 0.166504 6.37533 0.166504H5.62533ZM6 7.6665C6.39782 7.6665 6.77936 7.50847 7.06066 7.22716C7.34196 6.94586 7.5 6.56433 7.5 6.1665C7.5 5.76868 7.34196 5.38715 7.06066 5.10584C6.77936 4.82454 6.39782 4.6665 6 4.6665C5.60218 4.6665 5.22064 4.82454 4.93934 5.10584C4.65804 5.38715 4.5 5.76868 4.5 6.1665C4.5 6.56433 4.65804 6.94586 4.93934 7.22716C5.22064 7.50847 5.60218 7.6665 6 7.6665Z" fill="white"/>
</svg>