<svg width="20" height="20" viewBox="0 0 20 20" fill="none" xmlns="http://www.w3.org/2000/svg">
<g id="Group 14060">
<rect id="Rectangle 2703" x="3.0769" y="1.53857" width="1.53846" height="1.53846" fill="#374151"/>
<rect id="Rectangle 3159" width="1.53846" height="1.53846" transform="matrix(-1 0 0 1 16.9231 1.53857)" fill="#374151"/>
<rect id="Rectangle 3157" x="9.23077" width="1.53846" height="1.53846" fill="#374151"/>
<rect id="Rectangle 3190" x="9.23077" y="6.15381" width="1.53846" height="1.53846" fill="#374151"/>
<rect id="Rectangle 3193" x="9.23077" y="12.3076" width="1.53846" height="1.53846" fill="#374151"/>
<rect id="Rectangle 3149" x="3.0769" y="16.9229" width="1.53846" height="1.53846" fill="#374151"/>
<rect id="Rectangle 3161" width="1.53846" height="1.53846" transform="matrix(-1 0 0 1 16.9231 16.9229)" fill="#374151"/>
<rect id="Rectangle 3151" x="6.15387" y="15.3845" width="1.53846" height="1.53846" fill="#374151"/>
<rect id="Rectangle 3162" width="1.53846" height="1.53846" transform="matrix(-1 0 0 1 13.8461 15.3845)" fill="#374151"/>
<rect id="Rectangle 3153" x="6.15387" y="3.07715" width="1.53846" height="1.53846" fill="#374151"/>
<rect id="Rectangle 3163" width="1.53846" height="1.53846" transform="matrix(-1 0 0 1 13.8461 3.07715)" fill="#374151"/>
<rect id="Rectangle 3140" y="7.69238" width="1.53846" height="1.53846" fill="#374151"/>
<rect id="Rectangle 3184" x="6.15387" y="7.69238" width="1.53846" height="1.53846" fill="#374151"/>
<rect id="Rectangle 3187" x="12.3077" y="7.69238" width="1.53846" height="1.53846" fill="#374151"/>
<rect id="Rectangle 3164" width="1.53846" height="1.53846" transform="matrix(-1 0 0 1 20 7.69238)" fill="#374151"/>
<rect id="Rectangle 3136" x="3.0769" y="3.07715" width="1.53846" height="1.53846" transform="rotate(90 3.0769 3.07715)" fill="#374151"/>
<rect id="Rectangle 3165" width="1.53846" height="1.53846" transform="matrix(-5.18986e-09 1 1 5.18986e-09 16.9231 3.07715)" fill="#374151"/>
<rect id="Rectangle 3155" x="9.23077" width="1.53846" height="1.53846" transform="rotate(90 9.23077 0)" fill="#374151"/>
<rect id="Rectangle 3191" x="9.23077" y="6.15381" width="1.53846" height="1.53846" transform="rotate(90 9.23077 6.15381)" fill="#374151"/>
<rect id="Rectangle 3196" x="9.23077" y="7.69238" width="1.53846" height="1.53846" transform="rotate(90 9.23077 7.69238)" fill="#374151"/>
<rect id="Rectangle 3197" x="12.3077" y="7.69238" width="1.53846" height="1.53846" transform="rotate(90 12.3077 7.69238)" fill="#374151"/>
<rect id="Rectangle 3198" x="12.3077" y="10.769" width="1.53846" height="1.53846" transform="rotate(90 12.3077 10.769)" fill="#374151"/>
<rect id="Rectangle 3199" x="9.23077" y="10.769" width="1.53846" height="1.53846" transform="rotate(90 9.23077 10.769)" fill="#374151"/>
<rect id="Rectangle 3194" x="9.23077" y="12.3076" width="1.53846" height="1.53846" transform="rotate(90 9.23077 12.3076)" fill="#374151"/>
<rect id="Rectangle 3166" width="1.53846" height="1.53846" transform="matrix(-5.18986e-09 1 1 5.18986e-09 10.7692 0)" fill="#374151"/>
<rect id="Rectangle 3147" x="3.0769" y="13.8462" width="1.53846" height="1.53846" transform="rotate(90 3.0769 13.8462)" fill="#374151"/>
<rect id="Rectangle 3167" width="1.53846" height="1.53846" transform="matrix(-5.18986e-09 1 1 5.18986e-09 16.9231 13.8462)" fill="#374151"/>
<rect id="Rectangle 3142" x="1.53845" y="9.23096" width="1.53846" height="1.53846" transform="rotate(90 1.53845 9.23096)" fill="#374151"/>
<rect id="Rectangle 3185" x="7.69232" y="9.23096" width="1.53846" height="1.53846" transform="rotate(90 7.69232 9.23096)" fill="#374151"/>
<rect id="Rectangle 3188" x="13.8461" y="9.23096" width="1.53846" height="1.53846" transform="rotate(90 13.8461 9.23096)" fill="#374151"/>
<rect id="Rectangle 3168" width="1.53846" height="1.53846" transform="matrix(-5.18986e-09 1 1 5.18986e-09 18.4615 9.23096)" fill="#374151"/>
<rect id="Rectangle 3138" x="4.61536" y="6.15381" width="1.53846" height="1.53846" transform="rotate(90 4.61536 6.15381)" fill="#374151"/>
<rect id="Rectangle 3169" width="1.53846" height="1.53846" transform="matrix(-5.18986e-09 1 1 5.18986e-09 15.3846 6.15381)" fill="#374151"/>
<rect id="Rectangle 3146" x="4.61536" y="12.3076" width="1.53846" height="1.53846" transform="rotate(90 4.61536 12.3076)" fill="#374151"/>
<rect id="Rectangle 3170" width="1.53846" height="1.53846" transform="matrix(-5.18986e-09 1 1 5.18986e-09 15.3846 12.3076)" fill="#374151"/>
<rect id="Rectangle 3135" x="4.61536" y="1.53857" width="1.53846" height="1.53846" fill="#374151"/>
<rect id="Rectangle 3171" width="1.53846" height="1.53846" transform="matrix(-1 0 0 1 15.3846 1.53857)" fill="#374151"/>
<rect id="Rectangle 3158" x="10.7692" width="1.53846" height="1.53846" fill="#374151"/>
<rect id="Rectangle 3192" x="10.7692" y="6.15381" width="1.53846" height="1.53846" fill="#374151"/>
<rect id="Rectangle 3195" x="10.7692" y="12.3076" width="1.53846" height="1.53846" fill="#374151"/>
<rect id="Rectangle 3150" x="4.61536" y="16.9229" width="1.53846" height="1.53846" fill="#374151"/>
<rect id="Rectangle 3173" width="1.53846" height="1.53846" transform="matrix(-1 0 0 1 15.3846 16.9229)" fill="#374151"/>
<rect id="Rectangle 3152" x="7.69232" y="15.3845" width="1.53846" height="1.53846" fill="#374151"/>
<rect id="Rectangle 3174" width="1.53846" height="1.53846" transform="matrix(-1 0 0 1 12.3077 15.3845)" fill="#374151"/>
<rect id="Rectangle 3154" x="7.69232" y="3.07715" width="1.53846" height="1.53846" fill="#374151"/>
<rect id="Rectangle 3175" width="1.53846" height="1.53846" transform="matrix(-1 0 0 1 12.3077 3.07715)" fill="#374151"/>
<rect id="Rectangle 3141" x="1.53845" y="7.69238" width="1.53846" height="1.53846" fill="#374151"/>
<rect id="Rectangle 3176" width="1.53846" height="1.53846" transform="matrix(-1 0 0 1 18.4615 7.69238)" fill="#374151"/>
<rect id="Rectangle 3144" x="1.53845" y="10.769" width="1.53846" height="1.53846" fill="#374151"/>
<rect id="Rectangle 3177" width="1.53846" height="1.53846" transform="matrix(-1 0 0 1 18.4615 10.769)" fill="#374151"/>
<rect id="Rectangle 3137" x="3.0769" y="4.61548" width="1.53846" height="1.53846" transform="rotate(90 3.0769 4.61548)" fill="#374151"/>
<rect id="Rectangle 3178" width="1.53846" height="1.53846" transform="matrix(-5.18986e-09 1 1 5.18986e-09 16.9231 4.61548)" fill="#374151"/>
<rect id="Rectangle 3156" x="9.23083" y="1.53857" width="1.53846" height="1.53846" transform="rotate(90 9.23083 1.53857)" fill="#374151"/>
<rect id="Rectangle 3179" width="1.53846" height="1.53846" transform="matrix(-5.18986e-09 1 1 5.18986e-09 10.7692 1.53857)" fill="#374151"/>
<g id="Group 14058">
<rect id="Rectangle 3159_2" width="1.53846" height="1.53846" transform="matrix(1 0 0 -1 9.23077 20)" fill="#374151"/>
<rect id="Rectangle 3160" width="1.53846" height="1.53846" transform="matrix(5.18986e-09 -1 -1 -5.18986e-09 9.23077 20)" fill="#374151"/>
<rect id="Rectangle 3161_2" width="1.53846" height="1.53846" transform="matrix(1 0 0 -1 10.7692 20)" fill="#374151"/>
<rect id="Rectangle 3162_2" width="1.53846" height="1.53846" transform="matrix(5.18986e-09 -1 -1 -5.18986e-09 9.23083 18.4614)" fill="#374151"/>
</g>
<g id="Group 14059">
<rect id="Rectangle 3160_2" x="10.7692" y="20" width="1.53846" height="1.53846" transform="rotate(-90 10.7692 20)" fill="#374151"/>
<rect id="Rectangle 3162_3" x="10.7692" y="18.4614" width="1.53846" height="1.53846" transform="rotate(-90 10.7692 18.4614)" fill="#374151"/>
</g>
<rect id="Rectangle 3148" x="3.0769" y="15.3845" width="1.53846" height="1.53846" transform="rotate(90 3.0769 15.3845)" fill="#374151"/>
<rect id="Rectangle 3180" width="1.53846" height="1.53846" transform="matrix(-5.18986e-09 1 1 5.18986e-09 16.9231 15.3845)" fill="#374151"/>
<rect id="Rectangle 3143" x="1.53851" y="10.769" width="1.53846" height="1.53846" transform="rotate(90 1.53851 10.769)" fill="#374151"/>
<rect id="Rectangle 3186" x="7.69232" y="10.769" width="1.53846" height="1.53846" transform="rotate(90 7.69232 10.769)" fill="#374151"/>
<rect id="Rectangle 3189" x="13.8462" y="10.769" width="1.53846" height="1.53846" transform="rotate(90 13.8462 10.769)" fill="#374151"/>
<rect id="Rectangle 3181" width="1.53846" height="1.53846" transform="matrix(-5.18986e-09 1 1 5.18986e-09 18.4615 10.769)" fill="#374151"/>
<rect id="Rectangle 3139" x="4.61542" y="7.69238" width="1.53846" height="1.53846" transform="rotate(90 4.61542 7.69238)" fill="#374151"/>
<rect id="Rectangle 3182" width="1.53846" height="1.53846" transform="matrix(-5.18986e-09 1 1 5.18986e-09 15.3846 7.69238)" fill="#374151"/>
<rect id="Rectangle 3145" x="4.61542" y="10.769" width="1.53846" height="1.53846" transform="rotate(90 4.61542 10.769)" fill="#374151"/>
<rect id="Rectangle 3183" width="1.53846" height="1.53846" transform="matrix(-5.18986e-09 1 1 5.18986e-09 15.3846 10.769)" fill="#374151"/>
</g>
</svg>
