<svg width="21" height="20" viewBox="0 0 21 20" fill="none" xmlns="http://www.w3.org/2000/svg">
<path id="Vector" d="M17.5 8C17.2348 8 16.9804 8.10536 16.7929 8.29289C16.6054 8.48043 16.5 8.73478 16.5 9V12.38L15.02 10.9C14.4974 10.3815 13.7911 10.0906 13.055 10.0906C12.3189 10.0906 11.6126 10.3815 11.09 10.9L10.39 11.61L7.91 9.12C7.38742 8.60155 6.68113 8.31063 5.945 8.31063C5.20887 8.31063 4.50258 8.60155 3.98 9.12L2.5 10.61V5C2.5 4.73478 2.60536 4.48043 2.79289 4.29289C2.98043 4.10536 3.23478 4 3.5 4H11.5C11.7652 4 12.0196 3.89464 12.2071 3.70711C12.3946 3.51957 12.5 3.26522 12.5 3C12.5 2.73478 12.3946 2.48043 12.2071 2.29289C12.0196 2.10536 11.7652 2 11.5 2H3.5C2.70435 2 1.94129 2.31607 1.37868 2.87868C0.816071 3.44129 0.5 4.20435 0.5 5V17.22C0.502635 17.9565 0.796373 18.6621 1.31715 19.1828C1.83794 19.7036 2.54351 19.9974 3.28 20H15.72C15.991 19.9978 16.2603 19.9574 16.52 19.88C17.0974 19.718 17.6058 19.3711 17.9671 18.8924C18.3283 18.4137 18.5226 17.8297 18.52 17.23V9C18.52 8.86698 18.4935 8.73529 18.442 8.61264C18.3905 8.48999 18.3151 8.37885 18.2201 8.28573C18.1251 8.1926 18.0125 8.11936 17.8888 8.0703C17.7652 8.02124 17.633 7.99734 17.5 8ZM3.5 18C3.23478 18 2.98043 17.8946 2.79289 17.7071C2.60536 17.5196 2.5 17.2652 2.5 17V13.43L5.39 10.54C5.53615 10.3947 5.73389 10.3131 5.94 10.3131C6.14611 10.3131 6.34385 10.3947 6.49 10.54L13.96 18H3.5ZM16.5 17C16.4936 17.1936 16.431 17.3812 16.32 17.54L11.8 13L12.51 12.3C12.5817 12.2268 12.6673 12.1687 12.7617 12.129C12.8561 12.0893 12.9576 12.0689 13.06 12.0689C13.1624 12.0689 13.2639 12.0893 13.3583 12.129C13.4527 12.1687 13.5383 12.2268 13.61 12.3L16.5 15.21V17ZM19.5 2H18.5V1C18.5 0.734784 18.3946 0.48043 18.2071 0.292893C18.0196 0.105357 17.7652 0 17.5 0C17.2348 0 16.9804 0.105357 16.7929 0.292893C16.6054 0.48043 16.5 0.734784 16.5 1V2H15.5C15.2348 2 14.9804 2.10536 14.7929 2.29289C14.6054 2.48043 14.5 2.73478 14.5 3C14.5 3.26522 14.6054 3.51957 14.7929 3.70711C14.9804 3.89464 15.2348 4 15.5 4H16.5V5C16.5 5.26522 16.6054 5.51957 16.7929 5.70711C16.9804 5.89464 17.2348 6 17.5 6C17.7652 6 18.0196 5.89464 18.2071 5.70711C18.3946 5.51957 18.5 5.26522 18.5 5V4H19.5C19.7652 4 20.0196 3.89464 20.2071 3.70711C20.3946 3.51957 20.5 3.26522 20.5 3C20.5 2.73478 20.3946 2.48043 20.2071 2.29289C20.0196 2.10536 19.7652 2 19.5 2Z" fill="white"/>
</svg>