<svg width="52" height="52" viewBox="0 0 52 52" fill="none" xmlns="http://www.w3.org/2000/svg">
<g id="Frame 14766">
<rect width="52" height="52" rx="5" fill="#777777"/>
<path id="Vector" d="M23.3219 22.4255L25.3066 20.4322V28.7435C25.3066 28.9734 25.3979 29.1938 25.5604 29.3563C25.723 29.5189 25.9434 29.6102 26.1733 29.6102C26.4031 29.6102 26.6236 29.5189 26.7861 29.3563C26.9486 29.1938 27.0399 28.9734 27.0399 28.7435V20.4322L29.0246 22.4255C29.1052 22.5067 29.201 22.5712 29.3066 22.6152C29.4122 22.6592 29.5255 22.6819 29.6399 22.6819C29.7543 22.6819 29.8676 22.6592 29.9732 22.6152C30.0788 22.5712 30.1747 22.5067 30.2553 22.4255C30.3365 22.3449 30.401 22.2491 30.445 22.1435C30.489 22.0379 30.5116 21.9246 30.5116 21.8102C30.5116 21.6958 30.489 21.5825 30.445 21.4769C30.401 21.3713 30.3365 21.2754 30.2553 21.1949L26.7886 17.7282C26.7062 17.6493 26.609 17.5874 26.5026 17.5462C26.2916 17.4595 26.0549 17.4595 25.8439 17.5462C25.7375 17.5874 25.6404 17.6493 25.5579 17.7282L22.0913 21.1949C22.0105 21.2757 21.9464 21.3716 21.9026 21.4772C21.8589 21.5827 21.8364 21.6959 21.8364 21.8102C21.8364 21.9245 21.8589 22.0376 21.9026 22.1432C21.9464 22.2488 22.0105 22.3447 22.0913 22.4255C22.1721 22.5063 22.268 22.5704 22.3736 22.6142C22.4792 22.6579 22.5923 22.6804 22.7066 22.6804C22.8209 22.6804 22.934 22.6579 23.0396 22.6142C23.1452 22.5704 23.2411 22.5063 23.3219 22.4255ZM33.9733 26.1435C33.7434 26.1435 33.523 26.2348 33.3604 26.3974C33.1979 26.5599 33.1066 26.7803 33.1066 27.0102V32.2102C33.1066 32.44 33.0153 32.6605 32.8528 32.823C32.6902 32.9855 32.4698 33.0769 32.2399 33.0769H20.1066C19.8767 33.0769 19.6563 32.9855 19.4938 32.823C19.3312 32.6605 19.2399 32.44 19.2399 32.2102V27.0102C19.2399 26.7803 19.1486 26.5599 18.9861 26.3974C18.8236 26.2348 18.6031 26.1435 18.3733 26.1435C18.1434 26.1435 17.923 26.2348 17.7604 26.3974C17.5979 26.5599 17.5066 26.7803 17.5066 27.0102V32.2102C17.5066 32.8997 17.7805 33.5611 18.2681 34.0487C18.7557 34.5363 19.417 34.8102 20.1066 34.8102H32.2399C32.9295 34.8102 33.5908 34.5363 34.0784 34.0487C34.566 33.5611 34.8399 32.8997 34.8399 32.2102V27.0102C34.8399 26.7803 34.7486 26.5599 34.5861 26.3974C34.4236 26.2348 34.2031 26.1435 33.9733 26.1435Z" fill="white"/>
</g>
</svg>
