<svg xmlns="http://www.w3.org/2000/svg" width="52" height="52" viewBox="0 0 52 52" fill="none">
  <rect width="52" height="52" rx="26" fill="#777777"/>
  <path d="M23.3219 22.4253L25.3066 20.432V28.7433C25.3066 28.9732 25.3979 29.1936 25.5604 29.3561C25.723 29.5187 25.9434 29.61 26.1733 29.61C26.4031 29.61 26.6236 29.5187 26.7861 29.3561C26.9486 29.1936 27.0399 28.9732 27.0399 28.7433V20.432L29.0246 22.4253C29.1052 22.5065 29.201 22.571 29.3066 22.615C29.4122 22.659 29.5255 22.6817 29.6399 22.6817C29.7543 22.6817 29.8676 22.659 29.9732 22.615C30.0788 22.571 30.1747 22.5065 30.2553 22.4253C30.3365 22.3447 30.401 22.2489 30.445 22.1433C30.489 22.0377 30.5116 21.9244 30.5116 21.81C30.5116 21.6956 30.489 21.5823 30.445 21.4767C30.401 21.3711 30.3365 21.2752 30.2553 21.1946L26.7886 17.728C26.7062 17.6491 26.609 17.5872 26.5026 17.546C26.2916 17.4593 26.0549 17.4593 25.8439 17.546C25.7375 17.5872 25.6404 17.6491 25.5579 17.728L22.0913 21.1946C22.0105 21.2754 21.9464 21.3714 21.9026 21.477C21.8589 21.5825 21.8364 21.6957 21.8364 21.81C21.8364 21.9242 21.8589 22.0374 21.9026 22.143C21.9464 22.2486 22.0105 22.3445 22.0913 22.4253C22.1721 22.5061 22.268 22.5702 22.3736 22.6139C22.4792 22.6577 22.5923 22.6802 22.7066 22.6802C22.8209 22.6802 22.934 22.6577 23.0396 22.6139C23.1452 22.5702 23.2411 22.5061 23.3219 22.4253ZM33.9733 26.1433C33.7434 26.1433 33.523 26.2346 33.3604 26.3971C33.1979 26.5597 33.1066 26.7801 33.1066 27.01V32.21C33.1066 32.4398 33.0153 32.6603 32.8528 32.8228C32.6902 32.9853 32.4698 33.0766 32.2399 33.0766H20.1066C19.8767 33.0766 19.6563 32.9853 19.4938 32.8228C19.3312 32.6603 19.2399 32.4398 19.2399 32.21V27.01C19.2399 26.7801 19.1486 26.5597 18.9861 26.3971C18.8236 26.2346 18.6031 26.1433 18.3733 26.1433C18.1434 26.1433 17.923 26.2346 17.7604 26.3971C17.5979 26.5597 17.5066 26.7801 17.5066 27.01V32.21C17.5066 32.8995 17.7805 33.5609 18.2681 34.0485C18.7557 34.536 19.417 34.81 20.1066 34.81H32.2399C32.9295 34.81 33.5908 34.536 34.0784 34.0485C34.566 33.5609 34.8399 32.8995 34.8399 32.21V27.01C34.8399 26.7801 34.7486 26.5597 34.5861 26.3971C34.4236 26.2346 34.2031 26.1433 33.9733 26.1433Z" fill="white"/>
</svg>