<svg width="20" height="18" viewBox="0 0 20 18" fill="none" xmlns="http://www.w3.org/2000/svg">
<g id="Group 14074">
<rect id="Rectangle 2522" x="16" y="14" width="2" height="2" fill="#374151"/>
<rect id="Rectangle 3135" x="14" y="16" width="2" height="2" fill="#374151"/>
<rect id="Rectangle 3136" x="12" y="16" width="2" height="2" fill="#374151"/>
<rect id="Rectangle 3137" x="10" y="16" width="2" height="2" fill="#374151"/>
<rect id="Rectangle 3138" x="8" y="16" width="2" height="2" fill="#374151"/>
<rect id="Rectangle 3139" x="6" y="16" width="2" height="2" fill="#374151"/>
<rect id="Rectangle 3140" x="4" y="16" width="2" height="2" fill="#374151"/>
<rect id="Rectangle 3141" x="2" y="16" width="2" height="2" fill="#374151"/>
<rect id="Rectangle 3142" y="14" width="2" height="2" fill="#374151"/>
<rect id="Rectangle 3143" y="12" width="2" height="2" fill="#374151"/>
<rect id="Rectangle 3144" y="10" width="2" height="2" fill="#374151"/>
<rect id="Rectangle 3145" y="8" width="2" height="2" fill="#374151"/>
<rect id="Rectangle 3146" y="6" width="2" height="2" fill="#374151"/>
<rect id="Rectangle 3147" y="4" width="2" height="2" fill="#374151"/>
<rect id="Rectangle 3148" x="2" y="4" width="2" height="2" fill="#374151"/>
<rect id="Rectangle 3149" x="4" y="4" width="2" height="2" fill="#374151"/>
<rect id="Rectangle 3150" x="6" y="4" width="2" height="2" fill="#374151"/>
<rect id="Rectangle 3151" x="8" y="4" width="2" height="2" fill="#374151"/>
<rect id="Rectangle 3152" x="10" y="4" width="2" height="2" fill="#374151"/>
<rect id="Rectangle 3153" x="12" y="4" width="2" height="2" fill="#374151"/>
<rect id="Rectangle 3154" x="14" y="4" width="2" height="2" fill="#374151"/>
<rect id="Rectangle 3163" x="16" y="6" width="2" height="2" fill="#374151"/>
<rect id="Rectangle 3164" x="16" y="8" width="2" height="2" fill="#374151"/>
<rect id="Rectangle 3165" x="18" y="10" width="2" height="2" fill="#374151"/>
<rect id="Rectangle 3167" x="10" y="10" width="2" height="2" fill="#374151"/>
<rect id="Rectangle 3169" x="14" y="12" width="2" height="2" fill="#374151"/>
<rect id="Rectangle 3168" x="14" y="8" width="2" height="2" fill="#374151"/>
<rect id="Rectangle 3170" x="12" y="8" width="2" height="2" fill="#374151"/>
<rect id="Rectangle 3171" x="12" y="12" width="2" height="2" fill="#374151"/>
<rect id="Rectangle 3166" x="16" y="12" width="2" height="2" fill="#374151"/>
<rect id="Rectangle 3155" x="14" y="2" width="2" height="2" fill="#374151"/>
<rect id="Rectangle 3156" x="12" width="2" height="2" fill="#374151"/>
<rect id="Rectangle 3157" x="10" width="2" height="2" fill="#374151"/>
<rect id="Rectangle 3158" x="8" width="2" height="2" fill="#374151"/>
<rect id="Rectangle 3159" x="6" width="2" height="2" fill="#374151"/>
<rect id="Rectangle 3160" x="4" width="2" height="2" fill="#374151"/>
<rect id="Rectangle 3161" x="2" width="2" height="2" fill="#374151"/>
<rect id="Rectangle 3162" y="2" width="2" height="2" fill="#374151"/>
</g>
</svg>
