<svg xmlns="http://www.w3.org/2000/svg" width="80" height="80" viewBox="0 0 80 80" fill="none">
  <path d="M45 5C45 2.2375 42.7625 0 40 0C37.2375 0 35 2.2375 35 5V12.5C35 15.2625 37.2375 17.5 40 17.5C42.7625 17.5 45 15.2625 45 12.5V5Z" fill="#F3F3F3"/>
  <path d="M23.5375 16.4625L18.5375 11.4625C16.5875 9.5125 13.4125 9.5125 11.4625 11.4625C9.5125 13.4125 9.5125 16.575 11.4625 18.5375L16.4625 23.5375C17.4375 24.5125 18.7125 25 20 25C21.2875 25 22.5625 24.5125 23.5375 23.5375C25.4875 21.5875 25.4875 18.425 23.5375 16.4625Z" fill="black"/>
  <path d="M5 45H12.5C15.2625 45 17.5 42.7625 17.5 40C17.5 37.2375 15.2625 35 12.5 35H5C2.2375 35 0 37.2375 0 40C0 42.7625 2.2375 45 5 45Z" fill="black"/>
  <path d="M16.4625 56.4625L11.4625 61.4625C9.5125 63.4125 9.5125 66.575 11.4625 68.5375C12.4375 69.5125 13.7125 70 15 70C16.2875 70 17.5625 69.5125 18.5375 68.5375L23.5375 63.5375C25.4875 61.5875 25.4875 58.425 23.5375 56.4625C21.5875 54.5125 18.4125 54.5125 16.4625 56.4625Z" fill="black"/>
  <path d="M40 62.5C37.2375 62.5 35 64.7375 35 67.5V75C35 77.7625 37.2375 80 40 80C42.7625 80 45 77.7625 45 75V67.5C45 64.7375 42.7625 62.5 40 62.5Z" fill="black"/>
  <path d="M61.4625 68.5375C62.4375 69.5125 63.7125 70 65 70C66.2875 70 67.5625 69.5125 68.5375 68.5375C70.4875 66.5875 70.4875 63.425 68.5375 61.4625L63.5375 56.4625C61.5875 54.5125 58.4125 54.5125 56.4625 56.4625C54.5125 58.4125 54.5125 61.575 56.4625 63.5375L61.4625 68.5375Z" fill="black"/>
  <path d="M75 45.0376C77.7625 45.0376 80 42.8001 80 40.0376C80 37.2751 77.7625 35.0376 75 35.0376H67.5C64.7375 35.0376 62.5 37.2751 62.5 40.0376C62.5 42.8001 64.7375 45.0376 67.5 45.0376H75Z" fill="#F3F3F3"/>
  <path d="M61.5 11.4877L56.5 16.4877C54.55 18.4377 54.5375 21.6002 56.5 23.5627C57.475 24.5377 58.7625 25.0252 60.0375 25.0252C61.3125 25.0252 62.5875 24.5377 63.575 23.5627L68.575 18.5627C70.525 16.6127 70.5375 13.4502 68.575 11.4877C66.625 9.5377 63.4625 9.5252 61.5 11.4877Z" fill="#F3F3F3"/>
</svg>