<svg width="15" height="15" viewBox="0 0 15 15" fill="none" xmlns="http://www.w3.org/2000/svg">
<path id="Vector" fill-rule="evenodd" clip-rule="evenodd" d="M2.04508 0C0.923696 0 0 0.923696 0 2.04508V10.2254C0 11.3468 0.923696 12.2705 2.04508 12.2705H2.72541V12.9522C2.72863 13.4943 2.94542 14.0133 3.32876 14.3967C3.7121 14.78 4.2311 14.9968 4.77322 15H12.9508C13.4929 14.9968 14.0119 14.78 14.3953 14.3967C14.7786 14.0133 14.9954 13.4943 14.9986 12.9522V4.77459C14.9954 4.23247 14.7786 3.71347 14.3953 3.33012C14.0119 2.94678 13.4929 2.73 12.9508 2.72678H12.2705V2.04508C12.2705 0.923696 11.3468 0 10.2254 0H2.04508ZM2.04508 1.36339H10.2254C10.6147 1.36339 10.9071 1.65584 10.9071 2.04508V2.72678H4.77322C4.2311 2.73 3.7121 2.94678 3.32876 3.33012C2.94542 3.71347 2.72863 4.23247 2.72541 4.77459V10.9071H2.04508C1.65584 10.9071 1.36339 10.6147 1.36339 10.2254V2.04508C1.36339 1.65584 1.65584 1.36339 2.04508 1.36339ZM4.77322 4.09017H12.9508C13.0412 4.08821 13.1311 4.10458 13.215 4.13828C13.299 4.17199 13.3752 4.22233 13.4391 4.28628C13.5031 4.35023 13.5534 4.42646 13.5871 4.51038C13.6208 4.5943 13.6372 4.68417 13.6353 4.77459V12.9522C13.6372 13.0426 13.6208 13.1325 13.5871 13.2164C13.5534 13.3003 13.5031 13.3766 13.4391 13.4405C13.3752 13.5044 13.299 13.5548 13.215 13.5885C13.1311 13.6222 13.0412 13.6386 12.9508 13.6366H4.77322C4.68281 13.6386 4.59293 13.6222 4.50901 13.5885C4.42509 13.5548 4.34886 13.5044 4.28492 13.4405C4.22097 13.3766 4.17063 13.3003 4.13692 13.2164C4.10322 13.1325 4.08685 13.0426 4.0888 12.9522V4.77459C4.08685 4.68417 4.10322 4.5943 4.13692 4.51038C4.17063 4.42646 4.22097 4.35023 4.28492 4.28628C4.34886 4.22233 4.42509 4.17199 4.50901 4.13828C4.59293 4.10458 4.68281 4.08821 4.77322 4.09017Z" fill="black"/>
</svg>
