<svg width="24" height="18" viewBox="0 0 24 18" fill="none" xmlns="http://www.w3.org/2000/svg">
<g id="Group">
<path id="Vector" d="M1.78125 0C1.00461 0 0.375 0.629578 0.375 1.40625C0.375 2.18292 1.00461 2.8125 1.78125 2.8125H22.5937C23.3704 2.8125 24 2.18292 24 1.40625C24 0.629578 23.3704 0 22.5937 0H1.78125ZM1.78125 7.59375C1.00461 7.59375 0.375 8.22332 0.375 9C0.375 9.77667 1.00461 10.4062 1.78125 10.4062H22.5937C23.3704 10.4062 24 9.77667 24 9C24 8.22332 23.3704 7.59375 22.5937 7.59375H1.78125ZM1.78125 15.1875C1.00461 15.1875 0.375 15.8171 0.375 16.5938C0.375 17.3704 1.00461 18 1.78125 18H22.5937C23.3704 18 24 17.3704 24 16.5938C24 15.8171 23.3704 15.1875 22.5937 15.1875H1.78125Z" fill="black"/>
</g>
</svg>
