<svg width="26" height="21" viewBox="0 0 26 21" fill="none" xmlns="http://www.w3.org/2000/svg">
<path id="Vector" d="M24.25 0.5H6.75C6.41848 0.5 6.10054 0.631696 5.86612 0.866117C5.6317 1.10054 5.5 1.41848 5.5 1.75V5.5H11.75V3H19.25V15.5H24.25C24.5815 15.5 24.8995 15.3683 25.1339 15.1339C25.3683 14.8995 25.5 14.5815 25.5 14.25V1.75C25.5 1.41848 25.3683 1.10054 25.1339 0.866117C24.8995 0.631696 24.5815 0.5 24.25 0.5ZM9.5625 4.52344C9.5625 4.61668 9.52546 4.7061 9.45953 4.77203C9.3936 4.83796 9.30418 4.875 9.21094 4.875H8.03906C7.94582 4.875 7.8564 4.83796 7.79047 4.77203C7.72454 4.7061 7.6875 4.61668 7.6875 4.52344V3.35156C7.6875 3.25832 7.72454 3.1689 7.79047 3.10297C7.8564 3.03704 7.94582 3 8.03906 3H9.21094C9.30418 3 9.3936 3.03704 9.45953 3.10297C9.52546 3.1689 9.5625 3.25832 9.5625 3.35156V4.52344ZM23.3125 12.6484C23.3125 12.7417 23.2755 12.8311 23.2095 12.897C23.1436 12.963 23.0542 13 22.9609 13H21.7891C21.6958 13 21.6064 12.963 21.5405 12.897C21.4745 12.8311 21.4375 12.7417 21.4375 12.6484V11.4766C21.4375 11.3833 21.4745 11.2939 21.5405 11.228C21.6064 11.162 21.6958 11.125 21.7891 11.125H22.9609C23.0542 11.125 23.1436 11.162 23.2095 11.228C23.2755 11.2939 23.3125 11.3833 23.3125 11.4766V12.6484ZM23.3125 8.58594C23.3125 8.67918 23.2755 8.7686 23.2095 8.83453C23.1436 8.90046 23.0542 8.9375 22.9609 8.9375H21.7891C21.6958 8.9375 21.6064 8.90046 21.5405 8.83453C21.4745 8.7686 21.4375 8.67918 21.4375 8.58594V7.41406C21.4375 7.32082 21.4745 7.2314 21.5405 7.16547C21.6064 7.09954 21.6958 7.0625 21.7891 7.0625H22.9609C23.0542 7.0625 23.1436 7.09954 23.2095 7.16547C23.2755 7.2314 23.3125 7.32082 23.3125 7.41406V8.58594ZM23.3125 4.52344C23.3125 4.61668 23.2755 4.7061 23.2095 4.77203C23.1436 4.83796 23.0542 4.875 22.9609 4.875H21.7891C21.6958 4.875 21.6064 4.83796 21.5405 4.77203C21.4745 4.7061 21.4375 4.61668 21.4375 4.52344V3.35156C21.4375 3.25832 21.4745 3.1689 21.5405 3.10297C21.6064 3.03704 21.6958 3 21.7891 3H22.9609C23.0542 3 23.1436 3.03704 23.2095 3.10297C23.2755 3.1689 23.3125 3.25832 23.3125 3.35156V4.52344ZM16.75 6.75H1.75C1.41848 6.75 1.10054 6.8817 0.866117 7.11612C0.631696 7.35054 0.5 7.66848 0.5 8L0.5 19.25C0.5 19.5815 0.631696 19.8995 0.866117 20.1339C1.10054 20.3683 1.41848 20.5 1.75 20.5H16.75C17.0815 20.5 17.3995 20.3683 17.6339 20.1339C17.8683 19.8995 18 19.5815 18 19.25V8C18 7.66848 17.8683 7.35054 17.6339 7.11612C17.3995 6.8817 17.0815 6.75 16.75 6.75ZM4.25 9.25C4.49723 9.25 4.7389 9.32331 4.94446 9.46066C5.15002 9.59801 5.31024 9.79324 5.40485 10.0216C5.49946 10.2501 5.52421 10.5014 5.47598 10.7439C5.42775 10.9863 5.3087 11.2091 5.13388 11.3839C4.95907 11.5587 4.73634 11.6778 4.49386 11.726C4.25139 11.7742 4.00005 11.7495 3.77165 11.6549C3.54324 11.5602 3.34801 11.4 3.21066 11.1945C3.07331 10.9889 3 10.7472 3 10.5C3 10.1685 3.1317 9.85054 3.36612 9.61612C3.60054 9.3817 3.91848 9.25 4.25 9.25ZM15.5 18H3V16.75L5.5 14.25L6.75 15.5L11.75 10.5L15.5 14.25V18Z" fill="#636363"/>
</svg>
