<svg width="20" height="20" viewBox="0 0 20 20" fill="none" xmlns="http://www.w3.org/2000/svg">
<path id="Vector" d="M10 0C8.02219 0 6.08879 0.58649 4.4443 1.6853C2.79981 2.78412 1.51809 4.3459 0.761209 6.17316C0.00433285 8.00043 -0.1937 10.0111 0.192152 11.9509C0.578004 13.8907 1.53041 15.6725 2.92894 17.0711C4.32746 18.4696 6.10929 19.422 8.0491 19.8078C9.98891 20.1937 11.9996 19.9957 13.8268 19.2388C15.6541 18.4819 17.2159 17.2002 18.3147 15.5557C19.4135 13.9112 20 11.9778 20 10C19.997 7.34876 18.9425 4.80697 17.0677 2.93226C15.193 1.05755 12.6512 0.00301305 10 0ZM10 18.75C8.26941 18.75 6.57768 18.2368 5.13875 17.2754C3.69981 16.3139 2.5783 14.9473 1.91603 13.3485C1.25376 11.7496 1.08048 9.99029 1.41811 8.29295C1.75573 6.59561 2.58909 5.03651 3.8128 3.81279C5.03651 2.58908 6.59562 1.75572 8.29296 1.4181C9.9903 1.08048 11.7496 1.25376 13.3485 1.91603C14.9474 2.5783 16.3139 3.69981 17.2754 5.13874C18.2368 6.57768 18.75 8.26941 18.75 10C18.7474 12.3199 17.8247 14.544 16.1843 16.1843C14.544 17.8247 12.3199 18.7474 10 18.75ZM15.6875 10C15.6875 10.1658 15.6216 10.3247 15.5044 10.4419C15.3872 10.5591 15.2283 10.625 15.0625 10.625H10.625V15.0625C10.625 15.2283 10.5591 15.3872 10.4419 15.5044C10.3247 15.6216 10.1658 15.6875 10 15.6875C9.83425 15.6875 9.67528 15.6216 9.55807 15.5044C9.44086 15.3872 9.37502 15.2283 9.37502 15.0625V10.625H4.9375C4.77175 10.625 4.61278 10.5591 4.49557 10.4419C4.37837 10.3247 4.31252 10.1658 4.31252 10C4.31252 9.83424 4.37837 9.67527 4.49557 9.55807C4.61278 9.44086 4.77175 9.37501 4.9375 9.37501H9.37502V4.9375C9.37502 4.77174 9.44086 4.61278 9.55807 4.49557C9.67528 4.37836 9.83425 4.31251 10 4.31251C10.1658 4.31251 10.3247 4.37836 10.4419 4.49557C10.5591 4.61278 10.625 4.77174 10.625 4.9375V9.37501H15.0625C15.2283 9.37501 15.3872 9.44086 15.5044 9.55807C15.6216 9.67527 15.6875 9.83424 15.6875 10Z" fill="black"/>
</svg>
