<svg width="40" height="40" viewBox="0 0 40 40" fill="none" xmlns="http://www.w3.org/2000/svg">
<g id="Group 14112">
<path id="Vector" d="M34.0906 39.9992H3.24346C1.45563 39.9992 0.000244141 38.5663 0.000244141 36.8049V11.4903C0.000244141 9.72874 1.45376 8.2959 3.24158 8.2959H34.0906C35.8784 8.2959 37.3319 9.72879 37.3319 11.4903V19.9636C37.3319 20.388 36.9883 20.7335 36.5638 20.7335C36.1376 20.7335 35.7939 20.388 35.7939 19.9636V11.4903C35.7939 10.5776 35.0296 9.8358 34.0906 9.8358L3.24346 9.83392C2.3045 9.83392 1.54015 10.5757 1.54015 11.4903V36.8049C1.54015 37.7175 2.30445 38.4593 3.24346 38.4593H34.0906C35.0295 38.4593 35.7939 37.7175 35.7939 36.8049V28.7561C35.7939 28.3317 36.1375 27.988 36.5638 27.988C36.9883 27.988 37.3319 28.3316 37.3319 28.7561V36.8049C37.3319 38.5664 35.8784 39.9992 34.0906 39.9992Z" fill="black"/>
<path id="Vector_2" d="M3.42704 9.83341C3.0477 9.83341 2.72659 9.55735 2.66837 9.18174C2.61015 8.80616 2.83363 8.44561 3.19609 8.33105L29.076 0.103907C29.0948 0.0982729 29.1136 0.0926389 29.1324 0.0888833C30.8676 -0.322387 32.6197 0.732998 33.0404 2.44006L34.6272 8.8812C34.723 9.29247 34.4714 9.70372 34.062 9.80329C33.6526 9.9047 33.2376 9.65681 33.1324 9.24931L31.5455 2.80817C31.3277 1.92556 30.4187 1.37904 29.5117 1.57999L3.66155 9.79608C3.58643 9.82049 3.5078 9.83341 3.42704 9.83341Z" fill="black"/>
<path id="Vector_3" d="M38.52 29.5259H31.5097C28.7002 29.5221 26.4243 27.2461 26.4204 24.4366V24.2827C26.4242 21.4751 28.7002 19.1992 31.5097 19.1953H38.52C39.3351 19.1953 39.998 19.8563 39.9998 20.6714V28.0461C39.998 28.863 39.3369 29.524 38.52 29.5259ZM31.5097 20.7334C29.5491 20.7353 27.9604 22.324 27.9585 24.2827V24.4367C27.9622 26.3973 29.5491 27.9841 31.5097 27.986H38.4599V20.7333L31.5097 20.7334Z" fill="black"/>
<path id="Vector_4" d="M33.2099 26.7426C32.2465 26.7426 31.377 26.1624 31.0089 25.2722C30.639 24.382 30.8437 23.3567 31.5254 22.675C32.2071 21.9933 33.2324 21.7886 34.1225 22.1586C35.0127 22.5267 35.5948 23.3962 35.5948 24.3596C35.593 25.676 34.5263 26.7426 33.2099 26.7426ZM33.2099 23.5145C32.8681 23.5145 32.5601 23.7211 32.4305 24.0365C32.2991 24.352 32.3704 24.7164 32.6127 24.9567C32.8549 25.199 33.2174 25.2722 33.5348 25.1408C33.8503 25.0093 34.0549 24.7013 34.0549 24.3596C34.0549 23.8938 33.6775 23.5145 33.2099 23.5145Z" fill="black"/>
<path id="Vector_5" d="M36.5636 13.8447H0.769975C0.345561 13.8447 0 13.5011 0 13.0766C0 12.6503 0.345542 12.3066 0.769975 12.3066H36.5636C36.988 12.3066 37.3317 12.6503 37.3317 13.0766C37.3317 13.501 36.988 13.8447 36.5636 13.8447Z" fill="black"/>
</g>
</svg>
