<svg width="17" height="16" viewBox="0 0 17 16" fill="none" xmlns="http://www.w3.org/2000/svg">
<g id="Icon L" clip-path="url(#clip0_1820_5628)">
<path id="Vector" d="M10.5002 2C10.8365 1.99989 11.1605 2.12694 11.4072 2.35566C11.6538 2.58439 11.8049 2.8979 11.8302 3.23333L11.8335 3.33333C11.8335 3.49662 11.8935 3.65422 12.002 3.77625C12.1105 3.89827 12.26 3.97623 12.4222 3.99533L12.5002 4H13.1668C13.677 3.99997 14.1678 4.19488 14.539 4.54486C14.9102 4.89483 15.1336 5.37341 15.1635 5.88267L15.1668 6V12C15.1669 12.5101 14.9719 13.001 14.622 13.3722C14.272 13.7433 13.7934 13.9667 13.2842 13.9967L13.1668 14H3.8335C3.32336 14 2.83249 13.8051 2.46132 13.4551C2.09016 13.1052 1.86676 12.6266 1.83683 12.1173L1.8335 12V6C1.83347 5.48986 2.02838 4.99899 2.37835 4.62783C2.72832 4.25666 3.2069 4.03326 3.71616 4.00333L3.8335 4H4.50016C4.67697 4 4.84654 3.92976 4.97157 3.80474C5.09659 3.67971 5.16683 3.51014 5.16683 3.33333C5.16672 2.99695 5.29377 2.67296 5.52249 2.4263C5.75122 2.17965 6.06473 2.02856 6.40016 2.00333L6.50016 2H10.5002ZM8.50016 6.66667C8.00456 6.66663 7.52659 6.8506 7.15892 7.18292C6.79124 7.51525 6.56005 7.97225 6.51016 8.46533L6.50283 8.56667L6.50016 8.66667L6.50283 8.76667C6.5224 9.15749 6.65618 9.53398 6.88761 9.84952C7.11904 10.1651 7.43795 10.4058 7.80484 10.5418C8.17173 10.6779 8.57048 10.7034 8.95169 10.6151C9.33291 10.5268 9.67984 10.3286 9.94952 10.045C10.2192 9.76147 10.3998 9.40504 10.4689 9.01989C10.538 8.63473 10.4926 8.23775 10.3383 7.87814C10.184 7.51853 9.92766 7.21207 9.60093 6.99673C9.2742 6.78139 8.89147 6.66663 8.50016 6.66667Z" fill="#374151"/>
</g>
<defs>
<clipPath id="clip0_1820_5628">
<rect width="16" height="16" fill="white" transform="translate(0.5)"/>
</clipPath>
</defs>
</svg>
