<svg width="13" height="15" viewBox="0 0 13 15" fill="none" xmlns="http://www.w3.org/2000/svg">
<path id="Vector" d="M11.5716 3.57143H10.1431C10.1431 1.6 8.54307 0 6.57164 0C4.60021 0 3.00021 1.6 3.00021 3.57143H1.57164C0.785923 3.57143 0.143066 4.21429 0.143066 5V13.5714C0.143066 14.3571 0.785923 15 1.57164 15H11.5716C12.3574 15 13.0002 14.3571 13.0002 13.5714V5C13.0002 4.21429 12.3574 3.57143 11.5716 3.57143ZM6.57164 1.42857C7.75735 1.42857 8.71449 2.38571 8.71449 3.57143H4.42878C4.42878 2.38571 5.38592 1.42857 6.57164 1.42857ZM11.5716 13.5714H1.57164V5H11.5716V13.5714ZM6.57164 7.85714C5.38592 7.85714 4.42878 6.9 4.42878 5.71429H3.00021C3.00021 7.68571 4.60021 9.28571 6.57164 9.28571C8.54307 9.28571 10.1431 7.68571 10.1431 5.71429H8.71449C8.71449 6.9 7.75735 7.85714 6.57164 7.85714Z" fill="#777777"/>
</svg>