<svg width="18" height="18" viewBox="0 0 18 18" fill="none" xmlns="http://www.w3.org/2000/svg">
<g id="Group 14082">
<path id="Union" fill-rule="evenodd" clip-rule="evenodd" d="M14 0H4V2H2V4H0V14H2V16H4V18H14V16H16V14H18V4H16V2H14V0ZM14 2V4H16V14H14V16H4V14H2V4H4V2H14Z" fill="white"/>
<path id="Vector" d="M7 8H5V10H7V8Z" fill="white"/>
<path id="Vector_2" d="M9 10H7V12H9V10Z" fill="white"/>
<path id="Vector_3" d="M11 6H13V8H11V6Z" fill="white"/>
<path id="Vector_4" d="M9 8H11V10H9V8Z" fill="white"/>
</g>
</svg>
