<svg xmlns="http://www.w3.org/2000/svg" width="9" height="15" viewBox="0 0 9 15" fill="none">
  <path d="M8.272 6.67278L1.91997 0.331965C1.81564 0.226776 1.69151 0.143286 1.55476 0.0863104C1.418 0.0293344 1.27131 0 1.12316 0C0.975004 0 0.828318 0.0293344 0.691559 0.0863104C0.5548 0.143286 0.430676 0.226776 0.326347 0.331965C0.117324 0.542236 0 0.826676 0 1.12316C0 1.41965 0.117324 1.70409 0.326347 1.91436L5.88157 7.5257L0.326347 13.0809C0.117324 13.2912 0 13.5756 0 13.8721C0 14.1686 0.117324 14.453 0.326347 14.6633C0.430285 14.7694 0.554234 14.8537 0.691011 14.9115C0.827788 14.9693 0.974673 14.9994 1.12316 15C1.27164 14.9994 1.41853 14.9693 1.5553 14.9115C1.69208 14.8537 1.81603 14.7694 1.91997 14.6633L8.272 8.32251C8.38592 8.21742 8.47683 8.08987 8.53901 7.9479C8.60119 7.80594 8.6333 7.65263 8.6333 7.49764C8.6333 7.34266 8.60119 7.18935 8.53901 7.04738C8.47683 6.90542 8.38592 6.77787 8.272 6.67278Z" fill="#777777"/>
</svg>