<svg width="24" height="24" viewBox="0 0 24 24" fill="none" xmlns="http://www.w3.org/2000/svg">
<g id="Circle Icon">
<circle id="Ellipse 3" cx="12" cy="12" r="11.5" fill="white" stroke="#DDE1E6"/>
<path id="Vector" d="M16.7915 8.70779C17.1854 8.31735 17.1854 7.68327 16.7915 7.29283C16.3975 6.90239 15.7577 6.90239 15.3638 7.29283L12.045 10.585L8.72318 7.29595C8.32922 6.90551 7.68943 6.90551 7.29547 7.29595C6.90151 7.6864 6.90151 8.32047 7.29547 8.71092L10.6173 12L7.29862 15.2922C6.90466 15.6826 6.90466 16.3167 7.29862 16.7072C7.69258 17.0976 8.33237 17.0976 8.72633 16.7072L12.045 13.415L15.3669 16.704C15.7609 17.0945 16.4007 17.0945 16.7946 16.704C17.1886 16.3136 17.1886 15.6795 16.7946 15.2891L13.4728 12L16.7915 8.70779Z" fill="#C4CED9"/>
</g>
</svg>
