<svg xmlns="http://www.w3.org/2000/svg" width="16" height="21" viewBox="0 0 16 21" fill="none">
  <path d="M13 2.5H11.82C11.6137 1.91645 11.2319 1.411 10.7271 1.05294C10.2222 0.694879 9.61894 0.50174 9 0.5H7C6.38106 0.50174 5.7778 0.694879 5.27293 1.05294C4.76807 1.411 4.38631 1.91645 4.18 2.5H3C2.20435 2.5 1.44129 2.81607 0.87868 3.37868C0.316071 3.94129 0 4.70435 0 5.5V17.5C0 18.2956 0.316071 19.0587 0.87868 19.6213C1.44129 20.1839 2.20435 20.5 3 20.5H13C13.7956 20.5 14.5587 20.1839 15.1213 19.6213C15.6839 19.0587 16 18.2956 16 17.5V5.5C16 4.70435 15.6839 3.94129 15.1213 3.37868C14.5587 2.81607 13.7956 2.5 13 2.5ZM6 3.5C6 3.23478 6.10536 2.98043 6.29289 2.79289C6.48043 2.60536 6.73478 2.5 7 2.5H9C9.26522 2.5 9.51957 2.60536 9.70711 2.79289C9.89464 2.98043 10 3.23478 10 3.5V4.5H6V3.5ZM14 17.5C14 17.7652 13.8946 18.0196 13.7071 18.2071C13.5196 18.3946 13.2652 18.5 13 18.5H3C2.73478 18.5 2.48043 18.3946 2.29289 18.2071C2.10536 18.0196 2 17.7652 2 17.5V5.5C2 5.23478 2.10536 4.98043 2.29289 4.79289C2.48043 4.60536 2.73478 4.5 3 4.5H4V5.5C4 5.76522 4.10536 6.01957 4.29289 6.20711C4.48043 6.39464 4.73478 6.5 5 6.5H11C11.2652 6.5 11.5196 6.39464 11.7071 6.20711C11.8946 6.01957 12 5.76522 12 5.5V4.5H13C13.2652 4.5 13.5196 4.60536 13.7071 4.79289C13.8946 4.98043 14 5.23478 14 5.5V17.5Z" fill="white"/>
</svg>