<svg width="21" height="21" viewBox="0 0 21 21" fill="none" xmlns="http://www.w3.org/2000/svg">
<g id="Group 14087">
<rect id="Rectangle 2248" x="14" y="2" width="2" height="2" fill="black"/>
<rect id="Rectangle 3222" x="12" width="2" height="2" fill="black"/>
<rect id="Rectangle 3247" x="17" y="5" width="2" height="2" fill="black"/>
<rect id="Rectangle 3253" x="17" y="19" width="2" height="2" fill="black"/>
<rect id="Rectangle 3223" x="10" width="2" height="2" fill="black"/>
<rect id="Rectangle 3248" x="15" y="5" width="2" height="2" fill="black"/>
<rect id="Rectangle 3254" x="15" y="19" width="2" height="2" fill="black"/>
<rect id="Rectangle 3224" x="8" width="2" height="2" fill="black"/>
<rect id="Rectangle 3249" x="13" y="5" width="2" height="2" fill="black"/>
<rect id="Rectangle 3255" x="13" y="19" width="2" height="2" fill="black"/>
<rect id="Rectangle 3225" x="6" width="2" height="2" fill="black"/>
<rect id="Rectangle 3250" x="11" y="5" width="2" height="2" fill="black"/>
<rect id="Rectangle 3256" x="11" y="19" width="2" height="2" fill="black"/>
<rect id="Rectangle 3226" x="4" width="2" height="2" fill="black"/>
<rect id="Rectangle 3251" x="9" y="5" width="2" height="2" fill="black"/>
<rect id="Rectangle 3257" x="9" y="19" width="2" height="2" fill="black"/>
<rect id="Rectangle 3227" x="2" width="2" height="2" fill="black"/>
<rect id="Rectangle 3252" x="7" y="5" width="2" height="2" fill="black"/>
<rect id="Rectangle 3258" x="7" y="19" width="2" height="2" fill="black"/>
<rect id="Rectangle 3228" y="2" width="2" height="2" fill="black"/>
<rect id="Rectangle 3235" x="5" y="7" width="2" height="2" fill="black"/>
<rect id="Rectangle 3241" x="19" y="7" width="2" height="2" fill="black"/>
<rect id="Rectangle 3229" y="4" width="2" height="2" fill="black"/>
<rect id="Rectangle 3236" x="5" y="9" width="2" height="2" fill="black"/>
<rect id="Rectangle 3242" x="19" y="9" width="2" height="2" fill="black"/>
<rect id="Rectangle 3230" y="6" width="2" height="2" fill="black"/>
<rect id="Rectangle 3237" x="5" y="11" width="2" height="2" fill="black"/>
<rect id="Rectangle 3243" x="19" y="11" width="2" height="2" fill="black"/>
<rect id="Rectangle 3231" y="8" width="2" height="2" fill="black"/>
<rect id="Rectangle 3238" x="5" y="13" width="2" height="2" fill="black"/>
<rect id="Rectangle 3244" x="19" y="13" width="2" height="2" fill="black"/>
<rect id="Rectangle 3232" y="10" width="2" height="2" fill="black"/>
<rect id="Rectangle 3239" x="5" y="15" width="2" height="2" fill="black"/>
<rect id="Rectangle 3245" x="19" y="15" width="2" height="2" fill="black"/>
<rect id="Rectangle 3233" y="12" width="2" height="2" fill="black"/>
<rect id="Rectangle 3240" x="5" y="17" width="2" height="2" fill="black"/>
<rect id="Rectangle 3246" x="19" y="17" width="2" height="2" fill="black"/>
<rect id="Rectangle 3234" x="2" y="14" width="2" height="2" fill="black"/>
</g>
</svg>
