<svg width="13" height="13" viewBox="0 0 13 13" fill="none" xmlns="http://www.w3.org/2000/svg">
<g id="Info Circle Light" clip-path="url(#clip0_1350_19342)">
<path id="Vector" d="M7.58342 8.125V9.20833H5.41675V8.125H5.95841V5.41667H5.41675V4.875H7.04175V8.125H7.58342Z" fill="black"/>
<path id="Vector_2" d="M7.04158 3.25H5.95825V4.33333H7.04158V3.25Z" fill="black"/>
<path id="Vector_3" d="M11.9167 4.87533V3.79199H11.3751V2.70866H10.8334V2.16699H10.2917V1.62533H9.20841V1.08366H8.12508V0.541992H4.87508V1.08366H3.79175V1.62533H2.70841V2.16699H2.16675V2.70866H1.62508V3.79199H1.08341V4.87533H0.541748V8.12533H1.08341V9.20866H1.62508V10.292H2.16675V10.8337H2.70841V11.3753H3.79175V11.917H4.87508V12.4587H8.12508V11.917H9.20841V11.3753H10.2917V10.8337H10.8334V10.292H11.3751V9.20866H11.9167V8.12533H12.4584V4.87533H11.9167ZM11.3751 8.12533H10.8334V9.20866H10.2917V9.75033H9.75008V10.292H9.20841V10.8337H8.12508V11.3753H4.87508V10.8337H3.79175V10.292H3.25008V9.75033H2.70841V9.20866H2.16675V8.12533H1.62508V4.87533H2.16675V3.79199H2.70841V3.25033H3.25008V2.70866H3.79175V2.16699H4.87508V1.62533H8.12508V2.16699H9.20841V2.70866H9.75008V3.25033H10.2917V3.79199H10.8334V4.87533H11.3751V8.12533Z" fill="black"/>
</g>
<defs>
<clipPath id="clip0_1350_19342">
<rect width="13" height="13" fill="white"/>
</clipPath>
</defs>
</svg>
