<svg width="48" height="48" viewBox="0 0 48 48" fill="none" xmlns="http://www.w3.org/2000/svg">
<g id="No-Photo">
<path id="Vector (Stroke)" fill-rule="evenodd" clip-rule="evenodd" d="M28 16C28 14.8954 28.8954 14 30 14H30.02C31.1246 14 32.02 14.8954 32.02 16C32.02 17.1046 31.1246 18 30.02 18H30C28.8954 18 28 17.1046 28 16Z" fill="#9CA3AF"/>
<path id="Vector (Stroke)_2" fill-rule="evenodd" clip-rule="evenodd" d="M12 6C12 4.89543 12.8954 4 14 4H36C38.1217 4 40.1566 4.84285 41.6569 6.34315C43.1571 7.84344 44 9.87827 44 12V34C44 35.1046 43.1046 36 42 36C40.8954 36 40 35.1046 40 34V12C40 10.9391 39.5786 9.92172 38.8284 9.17157C38.0783 8.42143 37.0609 8 36 8H14C12.8954 8 12 7.10457 12 6ZM9.25452 6.30039C10.0242 7.09266 10.0059 8.35885 9.21361 9.12852C8.46324 9.85749 8 10.8724 8 12V36C8 37.0609 8.42143 38.0783 9.17157 38.8284C9.92172 39.5786 10.9391 40 12 40H36L36.0029 40C36.5347 40.0008 37.0612 39.895 37.5515 39.689C38.0417 39.483 38.4857 39.1809 38.8573 38.8005C39.6291 38.0103 40.8954 37.9955 41.6855 38.7673C42.4757 39.5391 42.4905 40.8054 41.7187 41.5955C40.9739 42.3581 40.0839 42.9637 39.1012 43.3766C38.1194 43.7892 37.0649 44.0012 36 44C35.999 44 35.998 44 35.9971 44L36 44M35.9971 44L12 44C9.87827 44 7.84344 43.1571 6.34315 41.6569C4.84285 40.1566 4 38.1217 4 36V12C4 9.7476 4.93276 7.71051 6.42639 6.25948C7.21866 5.48981 8.48485 5.50813 9.25452 6.30039" fill="#9CA3AF"/>
<path id="Vector (Stroke)_3" fill-rule="evenodd" clip-rule="evenodd" d="M17.3993 23.429L7.41421 33.4141C6.63317 34.1952 5.36684 34.1952 4.58579 33.4141C3.80474 32.6331 3.80474 31.3667 4.58579 30.5857L14.5858 20.5857L14.6132 20.5588C15.8415 19.3768 17.3545 18.6604 19 18.6604C20.6455 18.6604 22.1585 19.3768 23.3868 20.5588L23.4142 20.5857L33.4142 30.5857C34.1953 31.3667 34.1953 32.6331 33.4142 33.4141C32.6332 34.1952 31.3668 34.1952 30.5858 33.4141L20.6007 23.429C19.9781 22.8347 19.4237 22.6604 19 22.6604C18.5763 22.6604 18.0219 22.8347 17.3993 23.429Z" fill="#9CA3AF"/>
<path id="Vector (Stroke)_4" fill-rule="evenodd" clip-rule="evenodd" d="M34.6004 27.4289C33.9137 26.7726 33.3088 26.6239 32.8474 26.6673C31.7477 26.7708 30.7723 25.9631 30.6688 24.8634C30.5654 23.7637 31.373 22.7884 32.4727 22.6849C34.3046 22.5126 36.0192 23.2418 37.3874 24.5596L37.4143 24.5859L43.4143 30.5859C44.1953 31.3669 44.1953 32.6333 43.4143 33.4143C42.6332 34.1954 41.3669 34.1954 40.5858 33.4143L34.6004 27.4289Z" fill="#9CA3AF"/>
<path id="Vector (Stroke)_5" fill-rule="evenodd" clip-rule="evenodd" d="M4.58579 4.58579C5.36683 3.80474 6.63317 3.80474 7.41421 4.58579L43.4142 40.5858C44.1953 41.3668 44.1953 42.6332 43.4142 43.4142C42.6332 44.1953 41.3668 44.1953 40.5858 43.4142L4.58579 7.41421C3.80474 6.63317 3.80474 5.36683 4.58579 4.58579Z" fill="#9CA3AF"/>
</g>
</svg>
